<svg id="Layer_1" data-name="Layer 1" xmlns="http://www.w3.org/2000/svg" viewBox="0 0 350 350"><defs><style>.cls-1{fill:#bbdefb;}.cls-1,.cls-2,.cls-3{stroke:#0072ff;stroke-linecap:round;stroke-linejoin:round;stroke-width:18px;}.cls-2{fill:#fff;}.cls-3{fill:none;}</style></defs><title>bottom_nav_notification_icon</title><g id="Page-1"><g id="t32"><path id="Path" class="cls-1" d="M366,201A166,166,0,1,1,200,35,166,166,0,0,1,366,201h0Z" transform="translate(-25 -26)"/><path id="Path-2" data-name="Path" class="cls-2" d="M200,35a165.44,165.44,0,0,0-65,13.21c-0.91,5.44-5.45,14.72-5.31,17.67,0.64,0.13,42.2-42.36,37-13.68-3.33,18.46-37.3,18.35-35.84,36.94,35.7,14,48.15-26.58,78.46-26.41,10.11,0.05,36-15.94,41-12.68,20,13.18-4.58,59.91-19.89,44.36-14.72-14.73-35.74,5.16-34.79,28.12,7.66,0.34,10.92-21.73,17.81-14.37,7.58,8.11,4.84,24.44-5.64,28.19s-52-28-41.79-3.92c11.18,26.72-33.5,47.37,11.61,36.59,21.27-5.09,14.21,11.09,24.24,18.81,12,9.18,6.66-12.67,15.38-9.35,12.68,4.91-2.18,17.54,17.68,8.37,23.29-10.62,14.55,5.94,21.67,16.77,13.37,20.22,46.24,39.62,63.46,12.9,4.06-6.3,1.46-56.14,27-22.71,16.23,21.24,10.66-25.09,12.86-37.25A166,166,0,0,0,200,35h0Z" transform="translate(-25 -26)"/><path id="Path-3" data-name="Path" class="cls-3" d="M114,235.34l-17.6,8.52,23.32-7.76-5.72-.76h0Z" transform="translate(-25 -26)"/><path id="Path-4" data-name="Path" class="cls-3" d="M94.25,244.59l1.29-.3,0.87-.42-2.16.72h0Z" transform="translate(-25 -26)"/><path id="Path-5" data-name="Path" class="cls-2" d="M222.43,275.88l-30.62-22.94-20.52.81L150,247l-16.67-11.49-37.8,8.74L80,251.84,62.62,275.2l6.14,27.38q2.64,3.39,5.43,6.64l32.11,15L128,327.14l12.89,26.46,0.38,2.66a166.54,166.54,0,0,0,100.12,5.54l4.36-26,19.8-16.07,8.23-25.66-41.35-.17-10-18h0Z" transform="translate(-25 -26)"/><path id="Path-6" data-name="Path" class="cls-2" d="M36.24,228.12c0.29-.24.61-0.47,0.87-0.72,7.42-7.42,13.61-8.66,19.79-19.79s-1.24-11.13,0-29.69-1.24-9.9,0-29.69c0.75-12-1.7-14.92-6.77-18.67" transform="translate(-25 -26)"/></g></g></svg>