<svg id="Layer_1" data-name="Layer 1" xmlns="http://www.w3.org/2000/svg" viewBox="0 0 800 800"><defs><style>.cls-1,.cls-9{fill:#ef5350;}.cls-2,.cls-8{fill:#d32f2f;}.cls-3,.cls-4,.cls-5,.cls-6,.cls-7{fill:none;}.cls-3,.cls-4,.cls-6,.cls-7,.cls-8,.cls-9{stroke:#b71c1c;}.cls-3,.cls-4,.cls-5{stroke-linejoin:round;}.cls-3,.cls-4,.cls-5,.cls-6,.cls-7,.cls-8,.cls-9{stroke-width:4px;}.cls-4,.cls-5,.cls-6,.cls-8,.cls-9{stroke-linecap:round;}.cls-5{stroke:#0f81e0;}.cls-10{fill:#b71c1c;}</style></defs><title>cover</title><rect class="cls-1" width="800" height="800"/><g id="Page-1"><g id="x28"><path id="Fill-493" class="cls-2" d="M232.52,388.94h32.61v71.34H232.52V388.94Z"/><path id="Stroke-494" class="cls-3" d="M232.52,388.94h32.61v71.34H232.52V388.94Z"/><path id="Fill-495" class="cls-2" d="M310,388.94h32.61v71.34H310V388.94Z"/><path id="Stroke-496" class="cls-3" d="M310,388.94h32.61v71.34H310V388.94Z"/><path id="Fill-497" class="cls-2" d="M261.06,370.6v8.15h-8.15V370.6h-8.15v8.15H236.6V370.6h-8.15v18.34h40.76V370.6h-8.15Z"/><path id="Stroke-498" class="cls-3" d="M261.06,370.6v8.15h-8.15V370.6h-8.15v8.15H236.6V370.6h-8.15v18.34h40.76V370.6h-8.15Z"/><path id="Fill-499" class="cls-2" d="M338.51,370.6v8.15h-8.15V370.6h-8.15v8.15h-8.15V370.6H305.9v18.34h40.76V370.6h-8.15Z"/><path id="Stroke-500" class="cls-3" d="M338.51,370.6v8.15h-8.15V370.6h-8.15v8.15h-8.15V370.6H305.9v18.34h40.76V370.6h-8.15Z"/><path id="Fill-501" class="cls-2" d="M299.79,405.25V386.9h-8.15v8.15h-8.15V386.9h-8.15v18.34H265.14v55H310v-55H299.79Z"/><path id="Stroke-502" class="cls-3" d="M299.79,405.25V386.9h-8.15v8.15h-8.15V386.9h-8.15v18.34H265.14v55H310v-55H299.79Z"/><path id="Fill-503" class="cls-1" d="M299.79,460.28H275.33V427.67a12.23,12.23,0,0,1,24.46,0v32.61h0Z"/><path id="Stroke-504" class="cls-3" d="M299.79,460.28H275.33V427.67a12.23,12.23,0,0,1,24.46,0v32.61h0Z"/><path id="Fill-505" class="cls-1" d="M257,460.28H240.68V437.86a8.15,8.15,0,1,1,16.31,0v22.42h0Z"/><path id="Stroke-506" class="cls-3" d="M257,460.28H240.68V437.86a8.15,8.15,0,1,1,16.31,0v22.42h0Z"/><path id="Fill-507" class="cls-1" d="M334.44,460.28H318.13V437.86a8.15,8.15,0,0,1,16.31,0v22.42h0Z"/><path id="Stroke-508" class="cls-3" d="M334.44,460.28H318.13V437.86a8.15,8.15,0,0,1,16.31,0v22.42h0Z"/><path id="Stroke-509" class="cls-4" d="M248.83,370.6V342.06"/><path id="Fill-510" class="cls-2" d="M248.83,342.06l18.34,8.15a0.1,0.1,0,0,1,0,.19l-18.34,8V342.06h0Z"/><path id="Stroke-511" class="cls-4" d="M248.83,342.06l18.34,8.15a0.1,0.1,0,0,1,0,.19l-18.34,8V342.06h0Z"/><path id="Stroke-512" class="cls-4" d="M326.28,370.6V342.06"/><path id="Fill-513" class="cls-2" d="M326.28,342.06l18.28,8.15a0.1,0.1,0,0,1,0,.19l-18.28,8V342.06h0Z"/><path id="Stroke-514" class="cls-4" d="M326.28,342.06l18.28,8.15a0.1,0.1,0,0,1,0,.19l-18.28,8V342.06h0Z"/><path id="Fill-515" class="cls-1" d="M240.68,401.17H257v14.27H240.68V401.17Z"/><path id="Stroke-516" class="cls-3" d="M240.68,401.17H257v14.27H240.68V401.17Z"/><path id="Fill-517" class="cls-1" d="M318.13,401.17h16.31v14.27H318.13V401.17Z"/><path id="Stroke-518" class="cls-3" d="M318.13,401.17h16.31v14.27H318.13V401.17Z"/></g></g><g id="Page-1-2" data-name="Page-1"><g id="x35"><path id="Fill-126" class="cls-2" d="M429.7,538.44h0a6,6,0,0,0-8.49,0L389,570.69H333.53a6,6,0,0,0,0,12h56a11.18,11.18,0,0,0,6.23-1.82l33.94-33.94a6,6,0,0,0,0-8.49h0Z"/><path id="Stroke-127" class="cls-3" d="M429.7,538.44h0a6,6,0,0,0-8.49,0L389,570.69H333.53a6,6,0,0,0,0,12h56a11.18,11.18,0,0,0,6.23-1.82l33.94-33.94a6,6,0,0,0,0-8.49h0Z"/><path id="Stroke-128" class="cls-4" d="M327.45,588.69h70l46-46m0,54-26-26"/><path id="Fill-129" class="cls-2" d="M440.48,594.69h-113v-6h108l5.31,5.31a0.4,0.4,0,0,1-.28.69h0Z"/><path id="Stroke-130" class="cls-4" d="M440.48,594.69h-113v-6h108l5.31,5.31a0.4,0.4,0,0,1-.28.69h0Z"/><path id="Fill-131" class="cls-2" d="M373.45,508.69a14,14,0,1,1-14-14,14,14,0,0,1,14,14h0Z"/><path id="Stroke-132" class="cls-4" d="M373.45,508.69a14,14,0,1,1-14-14,14,14,0,0,1,14,14h0Z"/><path id="Stroke-133" class="cls-4" d="M359.45,494.69v-6m0,40v-6m14-14h6m-40,0h6m4.1-9.9-4.24-4.24m28.28,28.28-4.24-4.24m0-19.8,4.24-4.24m-28.28,28.28,4.24-4.24m67.37-5.9-29.47,58"/><path id="Fill-134" class="cls-2" d="M403.38,498.52a6.19,6.19,0,0,0-8.46,2c6.9-12,21.69-15.19,33.65-8.29s16.55,21.33,9.65,33.29a6.19,6.19,0,0,0-2.46-8.35,6.12,6.12,0,0,0-8.4,2.08,6.23,6.23,0,0,0-10.79-6.23,6.24,6.24,0,0,0-10.79-6.23,6.12,6.12,0,0,0-2.4-8.31h0Z"/><path id="Stroke-135" class="cls-3" d="M403.38,498.52a6.19,6.19,0,0,0-8.46,2c6.9-12,21.69-15.19,33.65-8.29s16.55,21.33,9.65,33.29a6.19,6.19,0,0,0-2.46-8.35,6.12,6.12,0,0,0-8.4,2.08,6.23,6.23,0,0,0-10.79-6.23,6.24,6.24,0,0,0-10.79-6.23,6.12,6.12,0,0,0-2.4-8.31h0Z"/></g></g><g id="Page-1-3" data-name="Page-1"><g id="e62"><path id="Path" class="cls-5" d="M480.32,418.25l-13.07,2.91"/><path id="Fill-22" class="cls-2" d="M508.94,374.07c15.81,0,28.62,11.49,28.62,25.66a23.69,23.69,0,0,1-4.73,14.13c0.39,4.68,1.52,11.28,4.73,14.49,0,0-9.81-1.38-16.46-5.39a31.3,31.3,0,0,1-12.16,2.43c-15.81,0-28.62-11.49-28.62-25.66s12.81-25.66,28.62-25.66h0Z"/><path id="Stroke-23" class="cls-4" d="M508.94,374.07c15.81,0,28.62,11.49,28.62,25.66a23.69,23.69,0,0,1-4.73,14.13c0.39,4.68,1.52,11.28,4.73,14.49,0,0-9.81-1.38-16.46-5.39a31.3,31.3,0,0,1-12.16,2.43c-15.81,0-28.62-11.49-28.62-25.66s12.81-25.66,28.62-25.66h0Z"/><path id="Fill-24" class="cls-1" d="M498.84,399.73a5.05,5.05,0,1,1-5.05-5.05,5.05,5.05,0,0,1,5.05,5.05h0Z"/><path id="Stroke-25" class="cls-4" d="M498.84,399.73a5.05,5.05,0,1,1-5.05-5.05,5.05,5.05,0,0,1,5.05,5.05h0Z"/><path id="Fill-26" class="cls-1" d="M514,399.73a5.05,5.05,0,1,1-5.05-5.05,5.05,5.05,0,0,1,5.05,5.05h0Z"/><path id="Stroke-27" class="cls-4" d="M514,399.73a5.05,5.05,0,1,1-5.05-5.05,5.05,5.05,0,0,1,5.05,5.05h0Z"/><path id="Fill-28" class="cls-1" d="M529.15,399.73a5.05,5.05,0,1,1-5.05-5.05,5.05,5.05,0,0,1,5.05,5.05h0Z"/><path id="Stroke-29" class="cls-4" d="M529.15,399.73a5.05,5.05,0,1,1-5.05-5.05,5.05,5.05,0,0,1,5.05,5.05h0Z"/><path id="Fill-36" class="cls-1" d="M480.32,399.73c0-14.17,12.81-25.66,28.62-25.66,12.46,0,23,7.15,27,17.12a48,48,0,1,0-87.6,12l-8.4,25.19,27.34-7.19a48,48,0,0,0,35.6,3.64C490,422.29,480.32,412,480.32,399.73h0Z"/><path id="Stroke-37" class="cls-4" d="M480.32,399.73c0-14.17,12.81-25.66,28.62-25.66,12.46,0,23,7.15,27,17.12a48,48,0,1,0-87.6,12l-8.4,25.19,27.34-7.19a48,48,0,0,0,35.6,3.64C490,422.29,480.32,412,480.32,399.73h0Z"/></g></g><g id="Page-1-4" data-name="Page-1"><g id="x36"><path id="Fill-136" class="cls-2" d="M180.66,190.26c-7.37,9.63-28.87,41.74-29.54,89.16a1.71,1.71,0,0,0,1.8,1.73c6.72-.4,30.41-2.54,43.22-13.09A2.52,2.52,0,0,0,197,266c-0.42-8.71-3.22-60.1-11.32-75.32a3,3,0,0,0-5.06-.39h0Z"/><path id="Stroke-137" class="cls-3" d="M180.66,190.26c-7.37,9.63-28.87,41.74-29.54,89.16a1.71,1.71,0,0,0,1.8,1.73c6.72-.4,30.41-2.54,43.22-13.09A2.52,2.52,0,0,0,197,266c-0.42-8.71-3.22-60.1-11.32-75.32a3,3,0,0,0-5.06-.39h0Z"/><path id="Stroke-138" class="cls-4" d="M165.12,217.07l24-13.92m-28,25.92,30-16m-34,28,36-18m-38,30,38-18m-40,30,42-20m-44,34,44-22m-34,24.08v12"/><path id="Fill-139" class="cls-2" d="M131.12,289.12l12.61,11.5a9.89,9.89,0,0,0,3.32.53h67.79a4.15,4.15,0,0,0,4.16-3.33,4,4,0,0,0-3.94-4.67H147c-0.07,0-14.65-3.76-15.91-4.08,0,0,0,0,0,0h0Z"/><path id="Stroke-140" class="cls-3" d="M131.12,289.12l12.61,11.5a9.89,9.89,0,0,0,3.32.53h67.79a4.15,4.15,0,0,0,4.16-3.33,4,4,0,0,0-3.94-4.67H147c-0.07,0-14.65-3.76-15.91-4.08,0,0,0,0,0,0h0Z"/><path id="Stroke-141" class="cls-3" d="M161,281.07l12,12"/><path id="Fill-142" class="cls-2" d="M239.11,205.07a14,14,0,1,1-14-14,14,14,0,0,1,14,14h0Z"/><path id="Stroke-143" class="cls-4" d="M239.11,205.07a14,14,0,1,1-14-14,14,14,0,0,1,14,14h0Z"/><path id="Stroke-144" class="cls-4" d="M225.11,191.07v-6m0,40v-6m14-14h6m-40,0h6m4.1-9.9L211,190.93m28.28,28.28L235,215m0-19.8,4.24-4.24M211,219.21l4.24-4.24m-86.1,86.1h116"/></g></g><g id="Page-1-5" data-name="Page-1"><g id="w57"><path id="Fill-1115" class="cls-2" d="M391.92,287.07H332.28a4.18,4.18,0,0,1-4.18-4.18V175.25a4.18,4.18,0,0,1,4.18-4.18h59.65a4.18,4.18,0,0,1,4.18,4.18V282.89a4.18,4.18,0,0,1-4.18,4.18h0Z"/><path id="Stroke-1116" class="cls-6" d="M391.92,287.07H332.28a4.18,4.18,0,0,1-4.18-4.18V175.25a4.18,4.18,0,0,1,4.18-4.18h59.65a4.18,4.18,0,0,1,4.18,4.18V282.89a4.18,4.18,0,0,1-4.18,4.18h0Z"/><path id="Fill-1592" class="cls-1" d="M328.1,183.07h68v86h-68v-86Z"/><path id="Stroke-1593" class="cls-6" d="M328.1,183.07h68v86h-68v-86Z"/><path id="Stroke-1594" class="cls-6" d="M334.1,197.07l8-8m-8,18,4-4m8-8,6-6m-18,28,18-18m8-8,2-2m-6-12h12m16,0h2m-10,0h2"/><path id="Fill-1595" class="cls-1" d="M367.1,281.07h-10a3,3,0,0,1,0-6h10a3,3,0,0,1,0,6h0Z"/><path id="Stroke-1596" class="cls-6" d="M367.1,281.07h-10a3,3,0,0,1,0-6h10a3,3,0,0,1,0,6h0Z"/></g></g><g id="Page-1-6" data-name="Page-1"><g id="w7"><path id="Fill-35" class="cls-2" d="M133.59,603.45a4.1,4.1,0,0,1-3.85,2.73H107.86a4.1,4.1,0,0,1-3.85-2.73H39.71A1.58,1.58,0,0,0,38.12,605v7.78a1.58,1.58,0,0,0,1.58,1.58H195.17a1.58,1.58,0,0,0,1.58-1.58V605a1.58,1.58,0,0,0-1.58-1.58H133.59Z"/><path id="Stroke-36" class="cls-6" d="M133.59,603.45a4.1,4.1,0,0,1-3.85,2.73H107.86a4.1,4.1,0,0,1-3.85-2.73H39.71A1.58,1.58,0,0,0,38.12,605v7.78a1.58,1.58,0,0,0,1.58,1.58H195.17a1.58,1.58,0,0,0,1.58-1.58V605a1.58,1.58,0,0,0-1.58-1.58H133.59Z"/><path id="Fill-37" class="cls-2" d="M104,603.45a4.1,4.1,0,0,0,3.85,2.73h21.88a4.1,4.1,0,0,0,3.85-2.73h55V513.38a8.39,8.39,0,0,0-8.39-8.39H54.72a8.39,8.39,0,0,0-8.39,8.39v90.07H104Z"/><path id="Stroke-38" class="cls-6" d="M104,603.45a4.1,4.1,0,0,0,3.85,2.73h21.88a4.1,4.1,0,0,0,3.85-2.73h55V513.38a8.39,8.39,0,0,0-8.39-8.39H54.72a8.39,8.39,0,0,0-8.39,8.39v90.07H104Z"/><path id="Fill-1444" class="cls-1" d="M54.53,513.2h125.8v82H54.53v-82Z"/><path id="Stroke-1445" class="cls-6" d="M54.53,513.2h125.8v82H54.53v-82Z"/><path id="Stroke-1446" class="cls-6" d="M68.21,537.81l10.94-10.94M68.21,551.48L73.68,546m10.94-10.94,8.2-8.2M68.21,565.16l24.61-24.61m10.94-10.94,2.73-2.73"/></g></g><g id="Page-1-7" data-name="Page-1"><g id="w36"><path id="Path-2" data-name="Path" class="cls-7" d="M573.91,654.69a24,24,0,1,1-24-24,24,24,0,0,1,24,24h0Z"/><path id="Path-3" data-name="Path" class="cls-7" d="M509.91,606.69v33.08a38.9,38.9,0,0,0,38.92,38.92c25.81,0,47.08-14.89,47.08-40.7v-9.3"/><path id="Path-4" data-name="Path" class="cls-7" d="M579.91,648.69a30,30,0,1,1-30-30,30,30,0,0,1,30,30h0Z"/><path id="Fill-184" class="cls-2" d="M507.91,586.69h8v22h-8v-22Z"/><path id="Stroke-185" class="cls-7" d="M507.91,586.69h8v22h-8v-22Z"/><path id="Fill-186" class="cls-2" d="M515.91,590.69h6v14h-6v-14Z"/><path id="Stroke-187" class="cls-7" d="M515.91,590.69h6v14h-6v-14Z"/><path id="Fill-188" class="cls-2" d="M591.91,620.69h8v10h-8v-10Z"/><path id="Stroke-189" class="cls-7" d="M591.91,620.69h8v10h-8v-10Z"/><path id="Fill-190" class="cls-2" d="M615.21,620.69h-38.6a2.7,2.7,0,0,1-2.7-2.7v-36.6a2.7,2.7,0,0,1,2.7-2.7h38.6a2.7,2.7,0,0,1,2.7,2.7V618a2.7,2.7,0,0,1-2.7,2.7h0Z"/><path id="Stroke-191" class="cls-7" d="M615.21,620.69h-38.6a2.7,2.7,0,0,1-2.7-2.7v-36.6a2.7,2.7,0,0,1,2.7-2.7h38.6a2.7,2.7,0,0,1,2.7,2.7V618a2.7,2.7,0,0,1-2.7,2.7h0Z"/><path id="Stroke-192" class="cls-7" d="M579.91,570.69v8m8-8v8"/><path id="Fill-193" class="cls-2" d="M591.21,594.69h-14.6a2.7,2.7,0,0,1-2.7-2.7v-10.6a2.7,2.7,0,0,1,2.7-2.7h14.6a2.7,2.7,0,0,1,2.7,2.7V592a2.7,2.7,0,0,1-2.7,2.7h0Z"/><path id="Stroke-194" class="cls-6" d="M591.21,594.69h-14.6a2.7,2.7,0,0,1-2.7-2.7v-10.6a2.7,2.7,0,0,1,2.7-2.7h14.6a2.7,2.7,0,0,1,2.7,2.7V592a2.7,2.7,0,0,1-2.7,2.7h0Z"/></g></g><g id="Page-1-8" data-name="Page-1"><g id="g374"><path id="Fill-368" class="cls-1" d="M579.77,224.9h-91l9.93-59.59h71.17l9.93,59.59h0Z"/><path id="Stroke-369" class="cls-4" d="M579.77,224.9h-91l9.93-59.59h71.17l9.93,59.59h0Z"/><path id="Fill-370" class="cls-2" d="M579.77,224.9h-91l2.34-11.59h86.35l2.34,11.59h0Z"/><path id="Stroke-371" class="cls-4" d="M579.77,224.9h-91l2.34-11.59h86.35l2.34,11.59h0Z"/><path id="Fill-372" class="cls-1" d="M528.46,243.1H540V224.9H528.46V243.1Z"/><path id="Stroke-373" class="cls-4" d="M528.46,243.1H540V224.9H528.46V243.1Z"/><path id="Stroke-374" class="cls-4" d="M511.91,178.55V160.35a8.28,8.28,0,0,1,16.55,0"/><path id="Fill-375" class="cls-1" d="M523.5,243.1H545v5H523.5v-5Z"/><path id="Stroke-376" class="cls-4" d="M523.5,243.1H545v5H523.5v-5Z"/></g></g><g id="Page-1-9" data-name="Page-1"><g id="w108"><path id="Fill-935" class="cls-2" d="M694.87,447h8.5V435h-8.5"/><path id="Stroke-936" class="cls-6" d="M694.87,447h8.5V435h-8.5"/><path id="Fill-1884" class="cls-1" d="M695.37,441a40,40,0,1,1-40-40,40,40,0,0,1,40,40h0Z"/><rect class="cls-8" x="631.37" y="384.99" width="48" height="116"/><path id="Stroke-1885" class="cls-9" d="M695.37,441a40,40,0,1,1-40-40,40,40,0,0,1,40,40h0Z"/><path id="Stroke-1886" class="cls-6" d="M631.37,472.94V501h48V472.94m0-63.89V385h-48V409m2,15.95,8-8m-8,18,4-4m8-8,6-6m-18,28,18-18m8-8,2-2"/><path id="Fill-1887" class="cls-2" d="M626.83,469a39.94,39.94,0,0,0,57.08,0H626.83Z"/><path id="Stroke-1888" class="cls-4" d="M626.83,469a39.94,39.94,0,0,0,57.08,0H626.83Z"/></g></g><g id="Page-1-10" data-name="Page-1"><g id="w92"><path id="Fill-696" class="cls-1" d="M657.37,270.07h8v14h-8v-14Z"/><path id="Stroke-697" class="cls-7" d="M657.37,270.07h8v14h-8v-14Z"/><path id="Fill-698" class="cls-1" d="M741.37,270.07h8v14h-8v-14Z"/><path id="Stroke-699" class="cls-7" d="M741.37,270.07h8v14h-8v-14Z"/><path id="Fill-700" class="cls-2" d="M666.4,324.07H655.95a0.58,0.58,0,0,1-.58-0.58V285a1,1,0,0,1,1-1h9.46a7.57,7.57,0,0,1,7.57,7.57V317.1a7,7,0,0,1-7,7h0Z"/><path id="Stroke-701" class="cls-7" d="M666.4,324.07H655.95a0.58,0.58,0,0,1-.58-0.58V285a1,1,0,0,1,1-1h9.46a7.57,7.57,0,0,1,7.57,7.57V317.1a7,7,0,0,1-7,7h0Z"/><path id="Fill-702" class="cls-1" d="M655.37,324.07h0a10,10,0,0,1-10-10v-20a10,10,0,0,1,10-10v40h0Z"/><path id="Stroke-703" class="cls-7" d="M655.37,324.07h0a10,10,0,0,1-10-10v-20a10,10,0,0,1,10-10v40h0Z"/><path id="Fill-704" class="cls-1" d="M751.37,324.07v-40a10,10,0,0,1,10,10v20a10,10,0,0,1-10,10h0Z"/><path id="Stroke-705" class="cls-7" d="M751.37,324.07v-40a10,10,0,0,1,10,10v20a10,10,0,0,1-10,10h0Z"/><path id="Fill-706" class="cls-2" d="M750.79,324.07H740.34a7,7,0,0,1-7-7V291.64a7.57,7.57,0,0,1,7.57-7.57h9.76a0.66,0.66,0,0,1,.66.66v38.76a0.58,0.58,0,0,1-.58.58h0Z"/><path id="Stroke-707" class="cls-7" d="M750.79,324.07H740.34a7,7,0,0,1-7-7V291.64a7.57,7.57,0,0,1,7.57-7.57h9.76a0.66,0.66,0,0,1,.66.66v38.76a0.58,0.58,0,0,1-.58.58h0Z"/><path id="Stroke-708" class="cls-6" d="M667.37,292.07h6m-6,8h6m-6,8h6m-6,8h6m60-24h6m-6,8h6m-6,8h6m-6,8h6"/><path id="Fill-709" class="cls-2" d="M732.33,243.06a3.82,3.82,0,0,1-5.1,0c-5.25-4.55-16.84-7-23.87-7s-18.61,2.47-23.87,7a3.82,3.82,0,0,1-5.1,0l-6.2-5.7a3.8,3.8,0,0,1,0-5.6c8.25-7.47,24-11.69,35.19-11.69s26.95,4.22,35.19,11.69a3.8,3.8,0,0,1,0,5.6l-6.2,5.7h0Z"/><path id="Stroke-710" class="cls-6" d="M732.33,243.06a3.82,3.82,0,0,1-5.1,0c-5.25-4.55-16.84-7-23.87-7s-18.61,2.47-23.87,7a3.82,3.82,0,0,1-5.1,0l-6.2-5.7a3.8,3.8,0,0,1,0-5.6c8.25-7.47,24-11.69,35.19-11.69s26.95,4.22,35.19,11.69a3.8,3.8,0,0,1,0,5.6l-6.2,5.7h0Z"/><path id="Fill-711" class="cls-1" d="M674.4,243.06l-6.2-5.7a3.79,3.79,0,0,1-1-1.69,46.48,46.48,0,0,0-11.78,31.17v3.23h12v-3.23A34.56,34.56,0,0,1,676,243.91a3.71,3.71,0,0,1-1.57-.85h0Z"/><path id="Stroke-712" class="cls-7" d="M674.4,243.06l-6.2-5.7a3.79,3.79,0,0,1-1-1.69,46.48,46.48,0,0,0-11.78,31.17v3.23h12v-3.23A34.56,34.56,0,0,1,676,243.91a3.71,3.71,0,0,1-1.57-.85h0Z"/><path id="Fill-713" class="cls-1" d="M739.27,236.41a3.73,3.73,0,0,1-.73,1l-6.2,5.7a3.73,3.73,0,0,1-2.48,1,33,33,0,0,1,9.51,22.8v3.23h12v-3.23a44.91,44.91,0,0,0-12.1-30.43h0Z"/><path id="Stroke-714" class="cls-7" d="M739.27,236.41a3.73,3.73,0,0,1-.73,1l-6.2,5.7a3.73,3.73,0,0,1-2.48,1,33,33,0,0,1,9.51,22.8v3.23h12v-3.23a44.91,44.91,0,0,0-12.1-30.43h0Z"/></g></g><g id="Page-1-11" data-name="Page-1"><g id="w48"><path id="Fill-1015" class="cls-1" d="M98.29,463.52h0a27.08,27.08,0,0,1-27-27v-50a27,27,0,1,1,54,0v50a27.08,27.08,0,0,1-27,27h0Z"/><path id="Stroke-1016" class="cls-7" d="M98.29,463.52h0a27.08,27.08,0,0,1-27-27v-50a27,27,0,1,1,54,0v50a27.08,27.08,0,0,1-27,27h0Z"/><path id="Fill-1017" class="cls-2" d="M125,382.54c-5.84.19-10.53,6.55-10.53,14.38s4.84,14.4,10.8,14.4v-25.2a26.82,26.82,0,0,0-.27-3.58h0Z"/><path id="Stroke-1018" class="cls-7" d="M125,382.54c-5.84.19-10.53,6.55-10.53,14.38s4.84,14.4,10.8,14.4v-25.2a26.82,26.82,0,0,0-.27-3.58h0Z"/><path id="Fill-1019" class="cls-2" d="M71.56,382.54a26.82,26.82,0,0,0-.27,3.58v25.2c6,0,10.8-6.45,10.8-14.4s-4.69-14.19-10.53-14.38h0Z"/><path id="Stroke-1020" class="cls-7" d="M71.56,382.54a26.82,26.82,0,0,0-.27,3.58v25.2c6,0,10.8-6.45,10.8-14.4s-4.69-14.19-10.53-14.38h0Z"/><path id="Fill-1021" class="cls-2" d="M103.29,384a4.5,4.5,0,1,1-4.5-4.5,4.5,4.5,0,0,1,4.5,4.5h0Z"/><path id="Stroke-1022" class="cls-7" d="M103.29,384a4.5,4.5,0,1,1-4.5-4.5,4.5,4.5,0,0,1,4.5,4.5h0Z"/><path id="Stroke-1023" class="cls-7" d="M85.29,345.52a6,6,0,0,0,6,6,8,8,0,0,1,8,8"/><path id="Fill-1026" class="cls-2" d="M102.92,444.49a4.63,4.63,0,0,1-2-3.16,4.51,4.51,0,0,1,0-1.07,2,2,0,0,0-2.62-2.15,9,9,0,0,0-3.26,2.32,6.12,6.12,0,0,0-1.8,4.28,6.86,6.86,0,0,0,12.62,3.67,2.07,2.07,0,0,0-1.35-3.09,4.86,4.86,0,0,1-1.65-.81h0Z"/><path id="Stroke-1027" class="cls-7" d="M102.92,444.49a4.63,4.63,0,0,1-2-3.16,4.51,4.51,0,0,1,0-1.07,2,2,0,0,0-2.62-2.15,9,9,0,0,0-3.26,2.32,6.12,6.12,0,0,0-1.8,4.28,6.86,6.86,0,0,0,12.62,3.67,2.07,2.07,0,0,0-1.35-3.09,4.86,4.86,0,0,1-1.65-.81h0Z"/></g></g><g id="Page-1-12" data-name="Page-1"><g id="k40"><path id="Fill-43" class="cls-2" d="M759.46,632.45h-3.09a4,4,0,0,1,0-8h1.7c-1.77-10.57-2.93-20.29-1.36-32h-0.34a4,4,0,0,1,0-8h1.25l0.67-6.32a5.55,5.55,0,0,1-.82.22,6,6,0,0,1-5.14-1.49,5.93,5.93,0,0,1-8.9,4.79,6,6,0,0,1-3.06,2.41v7.39a3,3,0,0,1-6,0v-3a4,4,0,0,1-8,0v8a4,4,0,0,1-8,0v-9.57a5.9,5.9,0,0,1-4,1.57,6,6,0,0,1-5.64-4c-0.12,0-.23,0-0.36,0a5.94,5.94,0,0,1-2.94-.8,6.05,6.05,0,0,1-1.61,1.64l0.55,5.16c2.86,18.08-.84,31.21-3.69,49.29L699,650.45c24.89,5.33,38.49,5.33,63.38,0l-1.69-10.71c-0.4-2.52-.81-4.94-1.22-7.29h0Z"/><path id="Stroke-44" class="cls-6" d="M759.46,632.45h-3.09a4,4,0,0,1,0-8h1.7c-1.77-10.57-2.93-20.29-1.36-32h-0.34a4,4,0,0,1,0-8h1.25l0.67-6.32a5.55,5.55,0,0,1-.82.22,6,6,0,0,1-5.14-1.49,5.93,5.93,0,0,1-8.9,4.79,6,6,0,0,1-3.06,2.41v7.39a3,3,0,0,1-6,0v-3a4,4,0,0,1-8,0v8a4,4,0,0,1-8,0v-9.57a5.9,5.9,0,0,1-4,1.57,6,6,0,0,1-5.64-4c-0.12,0-.23,0-0.36,0a5.94,5.94,0,0,1-2.94-.8,6.05,6.05,0,0,1-1.61,1.64l0.55,5.16c2.86,18.08-.84,31.21-3.69,49.29L699,650.45c24.89,5.33,38.49,5.33,63.38,0l-1.69-10.71c-0.4-2.52-.81-4.94-1.22-7.29h0Z"/><path id="Fill-917" class="cls-2" d="M760.68,639.74l-0.11-.67c-22.7,4.5-37.08,4.5-59.78,0l-0.11.67L699,650.45c24.89,5.33,38.49,5.33,63.38,0l-1.69-10.71h0Z"/><path id="Stroke-918" class="cls-6" d="M760.68,639.74l-0.11-.67c-22.7,4.5-37.08,4.5-59.78,0l-0.11.67L699,650.45c24.89,5.33,38.49,5.33,63.38,0l-1.69-10.71h0Z"/><path id="Fill-919" class="cls-2" d="M762.37,632.45h-6a4,4,0,0,1,0-8h6a6,6,0,0,0,6-6v-20a6,6,0,0,0-6-6h-6a4,4,0,0,1,0-8h6a14,14,0,0,1,14,14v20a14,14,0,0,1-14,14h0Z"/><path id="Stroke-920" class="cls-6" d="M762.37,632.45h-6a4,4,0,0,1,0-8h6a6,6,0,0,0,6-6v-20a6,6,0,0,0-6-6h-6a4,4,0,0,1,0-8h6a14,14,0,0,1,14,14v20a14,14,0,0,1-14,14h0Z"/><path id="Fill-921" class="cls-1" d="M764.37,564.45a6,6,0,0,0-2.18-4.59c0.37-1.53.33-3.22-1.58-5.31a5.48,5.48,0,0,0-6.46-1.66,6,6,0,0,0-10.83-1.64,5.8,5.8,0,0,0-5.88,0,6,6,0,0,0-10.12,0,5.8,5.8,0,0,0-5.88,0,6,6,0,0,0-5.06-2.8,5.85,5.85,0,0,0-2.23.44,4.61,4.61,0,0,1-3.54,0,5.85,5.85,0,0,0-2.23-.44,6,6,0,0,0-6,6c0,0.13,0,.25,0,0.38a6,6,0,0,0-7.24,8.56,5.88,5.88,0,0,0-2.62,6.47,5.95,5.95,0,0,0,1.85,10.24c0,0.12,0,.23,0,0.36a6,6,0,0,0,11.06,3.2,5.94,5.94,0,0,0,2.94.8c0.12,0,.24,0,0.36,0a6,6,0,0,0,5.64,4,5.9,5.9,0,0,0,4-1.57v9.57a4,4,0,0,0,8,0v-8a4,4,0,0,0,8,0v3a3,3,0,0,0,6,0v-7.39a6,6,0,0,0,3.06-2.41,5.93,5.93,0,0,0,8.9-4.79,6,6,0,0,0,5.14,1.49,6.08,6.08,0,0,0,4.73-4.51,5.82,5.82,0,0,0-.63-4.33,6,6,0,0,0,2.8-5.06h0Z"/><path id="Stroke-922" class="cls-4" d="M764.37,564.45a6,6,0,0,0-2.18-4.59c0.37-1.53.33-3.22-1.58-5.31a5.48,5.48,0,0,0-6.46-1.66,6,6,0,0,0-10.83-1.64,5.8,5.8,0,0,0-5.88,0,6,6,0,0,0-10.12,0,5.8,5.8,0,0,0-5.88,0,6,6,0,0,0-5.06-2.8,5.85,5.85,0,0,0-2.23.44,4.61,4.61,0,0,1-3.54,0,5.85,5.85,0,0,0-2.23-.44,6,6,0,0,0-6,6c0,0.13,0,.25,0,0.38a6,6,0,0,0-7.24,8.56,5.88,5.88,0,0,0-2.62,6.47,5.95,5.95,0,0,0,1.85,10.24c0,0.12,0,.23,0,0.36a6,6,0,0,0,11.06,3.2,5.94,5.94,0,0,0,2.94.8c0.12,0,.24,0,0.36,0a6,6,0,0,0,5.64,4,5.9,5.9,0,0,0,4-1.57v9.57a4,4,0,0,0,8,0v-8a4,4,0,0,0,8,0v3a3,3,0,0,0,6,0v-7.39a6,6,0,0,0,3.06-2.41,5.93,5.93,0,0,0,8.9-4.79,6,6,0,0,0,5.14,1.49,6.08,6.08,0,0,0,4.73-4.51,5.82,5.82,0,0,0-.63-4.33,6,6,0,0,0,2.8-5.06h0Z"/><path id="Fill-923" class="cls-10" d="M714.37,628.45a2,2,0,1,1-2-2,2,2,0,0,1,2,2"/><path id="Fill-924" class="cls-10" d="M718.37,620.45a2,2,0,1,1-2-2,2,2,0,0,1,2,2"/><path id="Fill-925" class="cls-10" d="M722.37,632.45a2,2,0,1,1-2-2,2,2,0,0,1,2,2"/><path id="Fill-926" class="cls-10" d="M750.37,604.45a2,2,0,1,1-2-2,2,2,0,0,1,2,2"/><path id="Fill-927" class="cls-10" d="M744.37,610.45a2,2,0,1,1-2-2,2,2,0,0,1,2,2"/><path id="Fill-928" class="cls-10" d="M716.37,606.45a2,2,0,1,1-2-2,2,2,0,0,1,2,2"/><path id="Fill-929" class="cls-10" d="M742.37,632.45a2,2,0,1,1-2-2,2,2,0,0,1,2,2"/><path id="Fill-930" class="cls-10" d="M750.37,616.45a2,2,0,1,1-2-2,2,2,0,0,1,2,2"/></g></g><g id="Page-1-13" data-name="Page-1"><g id="w57-2" data-name="w57"><path id="Fill-1115-2" data-name="Fill-1115" class="cls-2" d="M374.45,741.1H314.8a4.18,4.18,0,0,1-4.18-4.18V629.28a4.18,4.18,0,0,1,4.18-4.18h59.65a4.18,4.18,0,0,1,4.18,4.18V736.92a4.18,4.18,0,0,1-4.18,4.18h0Z"/><path id="Stroke-1116-2" data-name="Stroke-1116" class="cls-6" d="M374.45,741.1H314.8a4.18,4.18,0,0,1-4.18-4.18V629.28a4.18,4.18,0,0,1,4.18-4.18h59.65a4.18,4.18,0,0,1,4.18,4.18V736.92a4.18,4.18,0,0,1-4.18,4.18h0Z"/><path id="Fill-1592-2" data-name="Fill-1592" class="cls-1" d="M310.63,637.1h68v86h-68v-86Z"/><path id="Stroke-1593-2" data-name="Stroke-1593" class="cls-6" d="M310.63,637.1h68v86h-68v-86Z"/><path id="Stroke-1594-2" data-name="Stroke-1594" class="cls-6" d="M316.63,651.1l8-8m-8,18,4-4m8-8,6-6m-18,28,18-18m8-8,2-2m-6-12h12m16,0h2m-10,0h2"/><path id="Fill-1595-2" data-name="Fill-1595" class="cls-1" d="M349.63,735.1h-10a3,3,0,0,1,0-6h10a3,3,0,1,1,0,6h0Z"/><path id="Stroke-1596-2" data-name="Stroke-1596" class="cls-6" d="M349.63,735.1h-10a3,3,0,0,1,0-6h10a3,3,0,1,1,0,6h0Z"/></g></g><g id="Page-1-14" data-name="Page-1"><g id="k40-2" data-name="k40"><path id="Fill-43-2" data-name="Fill-43" class="cls-2" d="M88.22,230.07H85.13a4,4,0,1,1,0-8h1.7c-1.77-10.57-2.93-20.29-1.36-32H85.13a4,4,0,1,1,0-8h1.25L87,175.75a5.55,5.55,0,0,1-.82.22,6,6,0,0,1-5.14-1.49,5.93,5.93,0,0,1-8.9,4.79,6,6,0,0,1-3.06,2.41v7.39a3,3,0,1,1-6,0v-3a4,4,0,0,1-8,0v8a4,4,0,0,1-8,0V184.5a5.9,5.9,0,0,1-4,1.57,6,6,0,0,1-5.64-4c-0.12,0-.23,0-0.36,0a5.94,5.94,0,0,1-2.94-.8,6.05,6.05,0,0,1-1.61,1.64l0.55,5.16c2.86,18.08-.84,31.21-3.69,49.29l-1.69,10.71c24.89,5.33,38.49,5.33,63.38,0l-1.69-10.71c-0.4-2.52-.81-4.94-1.22-7.29h0Z"/><path id="Stroke-44-2" data-name="Stroke-44" class="cls-6" d="M88.22,230.07H85.13a4,4,0,1,1,0-8h1.7c-1.77-10.57-2.93-20.29-1.36-32H85.13a4,4,0,1,1,0-8h1.25L87,175.75a5.55,5.55,0,0,1-.82.22,6,6,0,0,1-5.14-1.49,5.93,5.93,0,0,1-8.9,4.79,6,6,0,0,1-3.06,2.41v7.39a3,3,0,1,1-6,0v-3a4,4,0,0,1-8,0v8a4,4,0,0,1-8,0V184.5a5.9,5.9,0,0,1-4,1.57,6,6,0,0,1-5.64-4c-0.12,0-.23,0-0.36,0a5.94,5.94,0,0,1-2.94-.8,6.05,6.05,0,0,1-1.61,1.64l0.55,5.16c2.86,18.08-.84,31.21-3.69,49.29l-1.69,10.71c24.89,5.33,38.49,5.33,63.38,0l-1.69-10.71c-0.4-2.52-.81-4.94-1.22-7.29h0Z"/><path id="Fill-917-2" data-name="Fill-917" class="cls-2" d="M89.44,237.36l-0.11-.67c-22.7,4.5-37.08,4.5-59.78,0l-0.11.67-1.69,10.71c24.89,5.33,38.49,5.33,63.38,0l-1.69-10.71h0Z"/><path id="Stroke-918-2" data-name="Stroke-918" class="cls-6" d="M89.44,237.36l-0.11-.67c-22.7,4.5-37.08,4.5-59.78,0l-0.11.67-1.69,10.71c24.89,5.33,38.49,5.33,63.38,0l-1.69-10.71h0Z"/><path id="Fill-919-2" data-name="Fill-919" class="cls-2" d="M91.13,230.07h-6a4,4,0,1,1,0-8h6a6,6,0,0,0,6-6v-20a6,6,0,0,0-6-6h-6a4,4,0,1,1,0-8h6a14,14,0,0,1,14,14v20a14,14,0,0,1-14,14h0Z"/><path id="Stroke-920-2" data-name="Stroke-920" class="cls-6" d="M91.13,230.07h-6a4,4,0,1,1,0-8h6a6,6,0,0,0,6-6v-20a6,6,0,0,0-6-6h-6a4,4,0,1,1,0-8h6a14,14,0,0,1,14,14v20a14,14,0,0,1-14,14h0Z"/><path id="Fill-921-2" data-name="Fill-921" class="cls-1" d="M93.13,162.07a6,6,0,0,0-2.18-4.59c0.37-1.53.33-3.22-1.58-5.31a5.48,5.48,0,0,0-6.46-1.66,6,6,0,0,0-10.83-1.64,5.8,5.8,0,0,0-5.88,0,6,6,0,0,0-10.12,0,5.8,5.8,0,0,0-5.88,0,6,6,0,0,0-5.06-2.8,5.85,5.85,0,0,0-2.23.44,4.61,4.61,0,0,1-3.54,0,5.85,5.85,0,0,0-2.23-.44,6,6,0,0,0-6,6c0,0.13,0,.25,0,0.38A6,6,0,0,0,23.93,161a5.88,5.88,0,0,0-2.62,6.47,5.95,5.95,0,0,0,1.85,10.24c0,0.12,0,.23,0,0.36a6,6,0,0,0,11.06,3.2,5.94,5.94,0,0,0,2.94.8c0.12,0,.24,0,0.36,0a6,6,0,0,0,5.64,4,5.9,5.9,0,0,0,4-1.57v9.57a4,4,0,0,0,8,0v-8a4,4,0,0,0,8,0v3a3,3,0,1,0,6,0v-7.39a6,6,0,0,0,3.06-2.41,5.93,5.93,0,0,0,8.9-4.79A6,6,0,0,0,86.22,176,6.08,6.08,0,0,0,91,171.46a5.82,5.82,0,0,0-.63-4.33,6,6,0,0,0,2.8-5.06h0Z"/><path id="Stroke-922-2" data-name="Stroke-922" class="cls-4" d="M93.13,162.07a6,6,0,0,0-2.18-4.59c0.37-1.53.33-3.22-1.58-5.31a5.48,5.48,0,0,0-6.46-1.66,6,6,0,0,0-10.83-1.64,5.8,5.8,0,0,0-5.88,0,6,6,0,0,0-10.12,0,5.8,5.8,0,0,0-5.88,0,6,6,0,0,0-5.06-2.8,5.85,5.85,0,0,0-2.23.44,4.61,4.61,0,0,1-3.54,0,5.85,5.85,0,0,0-2.23-.44,6,6,0,0,0-6,6c0,0.13,0,.25,0,0.38A6,6,0,0,0,23.93,161a5.88,5.88,0,0,0-2.62,6.47,5.95,5.95,0,0,0,1.85,10.24c0,0.12,0,.23,0,0.36a6,6,0,0,0,11.06,3.2,5.94,5.94,0,0,0,2.94.8c0.12,0,.24,0,0.36,0a6,6,0,0,0,5.64,4,5.9,5.9,0,0,0,4-1.57v9.57a4,4,0,0,0,8,0v-8a4,4,0,0,0,8,0v3a3,3,0,1,0,6,0v-7.39a6,6,0,0,0,3.06-2.41,5.93,5.93,0,0,0,8.9-4.79A6,6,0,0,0,86.22,176,6.08,6.08,0,0,0,91,171.46a5.82,5.82,0,0,0-.63-4.33,6,6,0,0,0,2.8-5.06h0Z"/><path id="Fill-923-2" data-name="Fill-923" class="cls-10" d="M43.13,226.07a2,2,0,1,1-2-2,2,2,0,0,1,2,2"/><path id="Fill-924-2" data-name="Fill-924" class="cls-10" d="M47.13,218.07a2,2,0,1,1-2-2,2,2,0,0,1,2,2"/><path id="Fill-925-2" data-name="Fill-925" class="cls-10" d="M51.13,230.07a2,2,0,1,1-2-2,2,2,0,0,1,2,2"/><path id="Fill-926-2" data-name="Fill-926" class="cls-10" d="M79.13,202.07a2,2,0,1,1-2-2,2,2,0,0,1,2,2"/><path id="Fill-927-2" data-name="Fill-927" class="cls-10" d="M73.13,208.07a2,2,0,1,1-2-2,2,2,0,0,1,2,2"/><path id="Fill-928-2" data-name="Fill-928" class="cls-10" d="M45.13,204.07a2,2,0,1,1-2-2,2,2,0,0,1,2,2"/><path id="Fill-929-2" data-name="Fill-929" class="cls-10" d="M71.13,230.07a2,2,0,1,1-2-2,2,2,0,0,1,2,2"/><path id="Fill-930-2" data-name="Fill-930" class="cls-10" d="M79.13,214.07a2,2,0,1,1-2-2,2,2,0,0,1,2,2"/></g></g></svg>