<svg id="Layer_1" data-name="Layer 1" xmlns="http://www.w3.org/2000/svg" viewBox="0 0 335 335"><defs><style>.cls-1{fill:#EA384D;stroke:#EA384D;stroke-miterlimit:10;stroke-width:10px;}</style></defs><title>dropdown-arrow</title><path class="cls-1" d="M200,362.5c-89.6,0-162.5-72.9-162.5-162.5S110.4,37.5,200,37.5,362.5,110.4,362.5,200,289.6,362.5,200,362.5Zm0-313C117,49.54,49.54,117,49.54,200S117,350.46,200,350.46,350.46,283,350.46,200,283,49.54,200,49.54Z" transform="translate(-32.5 -32.5)"/><path class="cls-1" d="M200,248.14a10.27,10.27,0,0,1-7.28-3l-69.2-69.2a6,6,0,0,1,8.51-8.51l68,68,68-68a6,6,0,0,1,8.51,8.51l-69.2,69.2A10.27,10.27,0,0,1,200,248.14Z" transform="translate(-32.5 -32.5)"/></svg>
