<?xml version="1.0" encoding="utf-8"?>
<svg xmlns="http://www.w3.org/2000/svg" viewBox="0 0 1078 818">
    <style>
    rect, path { fill:white; stroke:#000000; stroke-width: 2px;}
    text { font-size: 16px; font-family: sans-serif;}
    text.w3c, text.bigger { font-size: 2em; }
    text.w3c { fill: blue; }
    .w3c-line, rect.w3c, path.w3c { stroke:blue; stroke-width: 2px;}
    .w3c-line { fill: none; }
  </style>

  <g transform="translate(-130.60296,-133.16003)" id="building">
    <path id="building" d="m 308.64129,886.11061 561.00234,-0.14512 0,5 34,0.10489 0.75,57.79607 174.45286,-0.54023 0.3549,-41.86932 76.3679,-0.5 0,-21.75722 -44.6595,0 c 0,0 -26.4891,-298.52168 0.4345,-442.45556 l 44.1202,-0.84974 -0.25,-22.54746 -75.2229,-0.20977 0,-40.07908 -3.4353,0 -1.1451,-69.85213 -6.8707,0 0,-29.77303 -30.8133,0 -0.01,-121.18424 -173.06008,-0.5 -0.20135,-23.39071 -68.457,11.09629 -0.10488,28.62792 -21.65234,21.75721 -33.20839,1.14512 -31.3535,30.91815 -17.34628,-16.53163 -35.39374,-0.35488 -16.71698,17.17675 -15.99141,-16.32187 -37.78885,0 -66.56189,67.457 -0.10488,103.85075 67.81189,68.02165 -17.17675,17.17675 0,4.58047 -162.64917,-2.6598 0,-40.84153 32.27055,-0.10714 -0.14512,-131.10673 -26.60726,-0.31813 1.39512,-78.03747 48.0949,-9.16094 -2.29023,-4.58047 -304.60106,60.69119 2.04023,29.87792 -20.15233,0.14512 -0.20977,137.16401 4.43535,-0.14512 0.14512,97.48005 -5.72559,-1.14512 -5.72558,83.59352 50.38514,-6.8707 -1.14512,28.62792 109.93121,0 -4.58047,44.65956 22.90234,0.10488 z"/>
    <path id="inoutside" d="m 571.41327,498.12579 -161.46147,-1.14512 2.29024,154.59077 313.76199,1.14511 -1.14512,-27.4828 -16.03163,14.88652 -18.32187,-16.03164 -3.43535,6.87071 -55.01199,0.43839 -7.96942,-6.16398 -69.85213,1.14512 0,-38.93397 -18.32186,-14.88652 54.9656,-52.67537 z"/>
  </g>

  <g transform="translate(-130.60296,-133.16003)" id='rooms'>
    <rect id="hall2galeria" y="655.00677" x="389.33969" height="227.87823" width="549.65607"/>
    <path id="hall4" d="m 900.86525,423.39066 0.84904,180.68593 12,-0.57143 0.57142,22.57143 24.2536,-0.24311 0.60355,110.52882 11.14285,-0.28571 0,-17.14286 62.28569,0.85715 0.5715,10.85714 20,0 -0.2858,-26 12.951,0.50178 0,-77.95807 -15.8081,0.0277 0.3929,-76.10715 6.7969,-0.21012 0,-108.18248 8.5245,-0.0717 -0.1372,-18.50736 z"/>
    <path id="hall5" d="m 866.15962,159.72425 -1.09587,224.39835 4.44863,-1.6048 0,-211.75654 90.41421,0.25 0,211.50654 58.64481,-0.44121 -0.5714,-33.42857 19.4286,0 -0.4589,-188.92377 z"/>

    <path id="foyerd" d="m 623.38096,417.83849 -49,50.14286 -0.0476,30.14286 18.04761,23.09524 -18.28571,17.71428 17.14285,16.57143 1.14286,16.28572 -9.42857,9.14285 7.14286,7.42857 9.71428,-9.14285 c 0,0 5.14286,7.42857 6,6.28571 0.85715,-1.14286 6.57143,-6.28571 6.57143,-6.28571 l -6,-7.42857 0.14286,-30.42858 L 642,503.21945 650.57143,512.07659 668,494 l 1.71429,2 34.85714,0 0.28571,22.90476 22,-0.0476 23.42857,23.14285 0.57143,26 -4.57143,4.28572 7.38096,7.90476 6.90476,0 0,-4.95238 17.19048,1.19048 1.42846,64.66504 11.14296,10.04924 56.85715,-0.28571 -0.85715,-45.14286 54.57143,-0.85714 -1.47335,-49.81165 -34.70154,0 -0.39654,-35.90264 8.57143,-7.42857 -7.42857,-8 -0.28571,-18 8,-8.85714 -8.57143,-9.42857 0.85714,-35.71429 8.57143,-8.85714 -7.31775,-5.22141 -3.37569,-0.40499 1.75719,-33.47045 -51.11137,-0.47458 -0.52381,17.57143 L 778.57143,436 762,419.50516 l -16.57143,16.33333 -16.85714,-16.61904 -69.52306,-1.6264 -32.76266,-28.94503 c 0,0 0.28572,-114.28572 0.57143,-115.42857 0.28572,-1.14286 32.19123,-27.94167 32.19123,-27.94167 l 69.23734,-1.77262 5.61905,5.57143 14.38095,-14.14286 -20.85714,-22.57143 -16.85714,17.42858 -17.71429,-18 -34.52381,-0.0952 -18.61904,16 -16.57143,-17.71429 -33.42857,2 35.71428,32.57143 -18.57143,18.57143 -1.66667,134.47619 z"/>
    <path id="foyerf" d="m 351.35437,435.15747 -92.49723,-0.50945 0,42.57143 25.14286,0.57143 0.28571,39.14285 4.28572,0 0,8 62,-0.28571 z"/>

    <path id="auditorium1" d="m 659.04837,245.27778 0,172.31527 68.45163,0.26925 16.5,-15.5 16.5,15.5 35,-36 70.65962,0.62825 L 863.5,279.8623 l -67,1 -37,-36 -15.5,16.5 -16.5,-16.5 z"/>
    <path id="auditorium2" d="m 726,520.8623 -69.5,0.5 -10.5,10 -5.5,-4 -11,10 4.5,5.5 -12,11 1,35 3,2 0,32.5 6,7 52.5,0.5 7.5,-7 19.5,16 31,-33 -15.695,-18.07141 17.195,-16.92859 -5.5,-6.5 0,-21 5,-5.5 z"/>
    <path class='w3c' id="auditorio3" d="m 605.10338,331.16127 -0.6,68.19999 -16.25,16 -26.25,-25.5 3.5,-3.5 -34.5,-33 -9,8 -1,-14 17,-15.49999 z"/>
    <path class='w3c' id="auditorio4" d="m 522,300.8623 11,9.5 33.5,-34 -3.5,-3.5 27,-25.5 15,15.5 0.3,68 -66.3,1 -17.5,-16.5 z"/>
    <rect id="auditorium8" y="298.87546" x="333.22897" height="126.32858" width="106.16055"/>
    <rect class='w3c' id="room5a" y="314.06177" x="869.79285" height="68.456032" width="89.920425"/>
    <rect class='w3c' id="room5b" y="240.06178" x="870.00928" height="73.601059" width="89.48761"/>
    <rect class='w3c' id="room5c" y="170.76126" x="869.50928" height="70.601044" width="90.48761"/>
    <rect class='w3c' id="room102" y="679" x="1045.7129" height="25.787495" width="54.074261"/>
    <rect class='w3c' id="room103" y="653" x="1045.75" height="26" width="54"/>
    <rect class='w3c' id="room104" y="627.19171" x="1045.6541" height="26.17058" width="54.191875"/>
    <path class='w3c' id="room105" d="m 1037.2,524 -0.01,26.53988 65,-0.13988 1.8,-26 z"/>
    <path class='w3c' id="room106" d="m 1037.2,498.7623 0,25.8 66.8,0.4 2.4,-26 z"/>
    <path class='w3c' id="room107" d="m 1037,472.5623 0,26.2 69.4,0.8 2.4,-26.8 z"/>
    <path class='w3c' id="room108" d="m 1037.1898,442.7197 -0.1898,30.0426 71.6,0.2 3.7429,-30.2426 z"/>
    <rect class='w3c' id="room109" y="383.8494" x="900.90503" height="34.968536" width="66.658463"/>
    <path class='w3c' id="room110" d="m 725.6,626.9623 37.6,-37.4 -0.2,-3.2 13.94275,-0.0714 0.0572,3.87141 1.4,0.8 0.74275,50.49362 -53.33775,0 z"/>
    <path id="room111" d="M 899.38379,553.6578 899.2,521 l -18.2,0.2 -8,-8.2 -6.6,6.4 0.28225,33.8955 z"/>
    <path class='w3c' id="room112" d="m 899,519.7623 0.2,-32.6 -18,0 -8.6,-8.4 -5.8,6.2 -0.2,18.8 16.4,15.8 z"/>
    <path class='w3c' id="room113" d="M 899.38379,417.99804 881.6,417.5623 l -15,15.4 -0.4,36 16.6,16.6 16.2,-0.4 z"/>
    <path class='w3c' id="room114" d="m 899.26623,384.1226 -33.45248,0.75 -0.41375,30.8897 2.95,1.25 6.05,4.95 7.2,-6.2 17.4,0 z"/>
    <rect class='w3c' id="room115" y="435.15747" x="351.35437" height="35.115952" width="57.409725"/>
  </g>

  <g transform="translate(-130.60296,-133.16003)" id="labels">
    <text y="939" x="159" style="font-size:4em;">FIRST FLOOR <tspan style="font-size:50%;">(UPPER FLOOR)</tspan></text>
    <text y="467" x="649">Foyer D</text>
    <text y="465" x="269">Foyer F</text>
    <text y="779.86633" x="540.64478" class='bigger'>HALL 2 GALERIA</text>
    <text y="536" x="919" class='bigger'>HALL 4</text>
    <text y="260" x="970" class='bigger' style='font-size: 1.5em;'>HALL</text>
    <text y="293.69565" x="984.66669" class='bigger'>5</text>
    <text y="329" x="690">Auditorium</text>
    <text y="357" x="736" style="font-size:1.5em">I</text>
    <text y="568" x="634">Auditorium</text>
    <text y="596" x="665" style="font-size:1.5em">II</text>
    <text class="w3c" y="169" x="480" style='font-size: 1em'>Auditório</text>
    <text class="w3c" y="195" x="503">III</text>
    <text class="w3c" y="169" x="670" style='font-size: 1em'>Auditório</text>
    <text class="w3c" y="195" x="688">IV</text>
    <text y="358" x="340">Auditorium</text>
    <text y="406" x="359" style="font-size:1.5em">VIII</text>
    <text class="w3c" y="211" x="891.65869">5.C</text>
    <text class="w3c" y="283.29639" x="891.94678">5.B</text>
    <text class="w3c" y="355" x="891.34131">5.A</text>
    <text class="w3c" y="459" x="426">1.15</text>
    <text class="w3c" y="476" x="1142.8342">1.08</text>
    <text class="w3c" y="506.69562" x="1143.0906">1.07</text>
    <text class="w3c" y="537.02899" x="1142.7537">1.06</text>
    <text class="w3c" y="567" x="1143.1199">1.05</text>
    <text class="w3c" y="649" x="1142.6511">1.04</text>
    <text class="w3c" y="676" x="1143.01">1.03</text>
    <text class="w3c" y="703" x="1143.3103">1.02</text>
    <text class="w3c" y="697.41357" x="788.89496">1.10</text>
    <text class="w3c" y="387" x="1144">1.09</text>
    <text class="w3c" y="463.2038" x="771.06055">1.14</text>
    <text class="w3c" y="496" x="771.2998">1.13</text>
    <text class="w3c" y="529" x="772.5">1.12</text>
    <text y="565" x="782.42188" style="font-size:1.5em;">1.11</text>

    <path class="w3c-line" d="m 1079,670 57,0"/>
    <path class="w3c-line" d="m 1077.5,642 57,0"/>
    <path class="w3c-line" d="m 1078.5,692 57,0"/>
    <path class="w3c-line" d="m 1081.5,460 57,5"/>
    <path class="w3c-line" d="m 1082.5,488.8623 52,8"/>
    <path class="w3c-line" d="m 1079.5,514.8623 57,9"/>
    <path class="w3c-line" d="m 1080.5,540.8623 56,16"/>
    <path class="w3c-line" d="m 754,632 36,38"/>
    <path class="w3c-line" d="m 1140,376 -193,25"/>
    <path class="w3c-line" d="m 836,435 39,-32"/>
    <path class="w3c-line" d="m 845,480 41,-25"/>
    <path class="w3c-line" d="m 841,519 40,-19"/>
    <path d="m 853,552 30,-12"/>
    <path class="w3c-line" d="m 426,448 -41,6"/>
    <path class="w3c-line" d="m 499,203 -1,120.5 66,30.5"/>
    <path class="w3c-line" d="m 675,186 -105,104"/>
  </g>
</svg>
