<svg id="Layer_1" data-name="Layer 1" xmlns="http://www.w3.org/2000/svg" viewBox="0 0 800 800"><defs><style>.cls-1{fill:#ef5350;}.cls-2{fill:#d32f2f;}.cls-3,.cls-4,.cls-5,.cls-6,.cls-7{fill:none;stroke-width:4px;}.cls-3,.cls-4,.cls-6,.cls-7{stroke:#b71c1c;}.cls-3,.cls-4,.cls-5{stroke-linejoin:round;}.cls-4,.cls-5,.cls-6{stroke-linecap:round;}.cls-5{stroke:#0f81e0;}</style></defs><title>header-pattern</title><rect class="cls-1" width="800" height="800"/><g id="Page-1"><g id="x28"><path id="Fill-493" class="cls-2" d="M232.52,388.94h32.61v71.34H232.52V388.94Z"/><path id="Stroke-494" class="cls-3" d="M232.52,388.94h32.61v71.34H232.52V388.94Z"/><path id="Fill-495" class="cls-2" d="M310,388.94h32.61v71.34H310V388.94Z"/><path id="Stroke-496" class="cls-3" d="M310,388.94h32.61v71.34H310V388.94Z"/><path id="Fill-497" class="cls-2" d="M261.06,370.6v8.15h-8.15V370.6h-8.15v8.15H236.6V370.6h-8.15v18.34h40.76V370.6h-8.15Z"/><path id="Stroke-498" class="cls-3" d="M261.06,370.6v8.15h-8.15V370.6h-8.15v8.15H236.6V370.6h-8.15v18.34h40.76V370.6h-8.15Z"/><path id="Fill-499" class="cls-2" d="M338.51,370.6v8.15h-8.15V370.6h-8.15v8.15h-8.15V370.6H305.9v18.34h40.76V370.6h-8.15Z"/><path id="Stroke-500" class="cls-3" d="M338.51,370.6v8.15h-8.15V370.6h-8.15v8.15h-8.15V370.6H305.9v18.34h40.76V370.6h-8.15Z"/><path id="Fill-501" class="cls-2" d="M299.79,405.25V386.9h-8.15v8.15h-8.15V386.9h-8.15v18.34H265.14v55H310v-55H299.79Z"/><path id="Stroke-502" class="cls-3" d="M299.79,405.25V386.9h-8.15v8.15h-8.15V386.9h-8.15v18.34H265.14v55H310v-55H299.79Z"/><path id="Fill-503" class="cls-1" d="M299.79,460.28H275.33V427.67a12.23,12.23,0,0,1,24.46,0v32.61h0Z"/><path id="Stroke-504" class="cls-3" d="M299.79,460.28H275.33V427.67a12.23,12.23,0,0,1,24.46,0v32.61h0Z"/><path id="Fill-505" class="cls-1" d="M257,460.28H240.68V437.86a8.15,8.15,0,1,1,16.31,0v22.42h0Z"/><path id="Stroke-506" class="cls-3" d="M257,460.28H240.68V437.86a8.15,8.15,0,1,1,16.31,0v22.42h0Z"/><path id="Fill-507" class="cls-1" d="M334.44,460.28H318.13V437.86a8.15,8.15,0,0,1,16.31,0v22.42h0Z"/><path id="Stroke-508" class="cls-3" d="M334.44,460.28H318.13V437.86a8.15,8.15,0,0,1,16.31,0v22.42h0Z"/><path id="Stroke-509" class="cls-4" d="M248.83,370.6V342.06"/><path id="Fill-510" class="cls-2" d="M248.83,342.06l18.34,8.15a0.1,0.1,0,0,1,0,.19l-18.34,8V342.06h0Z"/><path id="Stroke-511" class="cls-4" d="M248.83,342.06l18.34,8.15a0.1,0.1,0,0,1,0,.19l-18.34,8V342.06h0Z"/><path id="Stroke-512" class="cls-4" d="M326.28,370.6V342.06"/><path id="Fill-513" class="cls-2" d="M326.28,342.06l18.28,8.15a0.1,0.1,0,0,1,0,.19l-18.28,8V342.06h0Z"/><path id="Stroke-514" class="cls-4" d="M326.28,342.06l18.28,8.15a0.1,0.1,0,0,1,0,.19l-18.28,8V342.06h0Z"/><path id="Fill-515" class="cls-1" d="M240.68,401.17H257v14.27H240.68V401.17Z"/><path id="Stroke-516" class="cls-3" d="M240.68,401.17H257v14.27H240.68V401.17Z"/><path id="Fill-517" class="cls-1" d="M318.13,401.17h16.31v14.27H318.13V401.17Z"/><path id="Stroke-518" class="cls-3" d="M318.13,401.17h16.31v14.27H318.13V401.17Z"/></g></g><g id="Page-1-2" data-name="Page-1"><g id="x35"><path id="Fill-126" class="cls-2" d="M504.42,519.1h0a6,6,0,0,0-8.49,0l-32.25,32.25H408.24a6,6,0,0,0,0,12h56a11.18,11.18,0,0,0,6.23-1.82l33.94-33.94a6,6,0,0,0,0-8.49h0Z"/><path id="Stroke-127" class="cls-3" d="M504.42,519.1h0a6,6,0,0,0-8.49,0l-32.25,32.25H408.24a6,6,0,0,0,0,12h56a11.18,11.18,0,0,0,6.23-1.82l33.94-33.94a6,6,0,0,0,0-8.49h0Z"/><path id="Stroke-128" class="cls-4" d="M402.17,569.35h70l46-46m0,54-26-26"/><path id="Fill-129" class="cls-2" d="M515.2,575.35h-113v-6h108l5.31,5.31a0.4,0.4,0,0,1-.28.69h0Z"/><path id="Stroke-130" class="cls-4" d="M515.2,575.35h-113v-6h108l5.31,5.31a0.4,0.4,0,0,1-.28.69h0Z"/><path id="Fill-131" class="cls-2" d="M448.17,489.35a14,14,0,1,1-14-14,14,14,0,0,1,14,14h0Z"/><path id="Stroke-132" class="cls-4" d="M448.17,489.35a14,14,0,1,1-14-14,14,14,0,0,1,14,14h0Z"/><path id="Stroke-133" class="cls-4" d="M434.17,475.35v-6m0,40v-6m14-14h6m-40,0h6m4.1-9.9L420,475.21m28.28,28.28-4.24-4.24m0-19.8,4.24-4.24M420,503.49l4.24-4.24m67.37-5.9-29.47,58"/><path id="Fill-134" class="cls-2" d="M478.1,479.18a6.19,6.19,0,0,0-8.46,2c6.9-12,21.69-15.19,33.65-8.29s16.55,21.33,9.65,33.29a6.19,6.19,0,0,0-2.46-8.35,6.12,6.12,0,0,0-8.4,2.08,6.23,6.23,0,0,0-10.79-6.23,6.24,6.24,0,0,0-10.79-6.23,6.12,6.12,0,0,0-2.4-8.31h0Z"/><path id="Stroke-135" class="cls-3" d="M478.1,479.18a6.19,6.19,0,0,0-8.46,2c6.9-12,21.69-15.19,33.65-8.29s16.55,21.33,9.65,33.29a6.19,6.19,0,0,0-2.46-8.35,6.12,6.12,0,0,0-8.4,2.08,6.23,6.23,0,0,0-10.79-6.23,6.24,6.24,0,0,0-10.79-6.23,6.12,6.12,0,0,0-2.4-8.31h0Z"/></g></g><g id="Page-1-3" data-name="Page-1"><g id="e62"><path id="Path" class="cls-5" d="M500.58,371.7l-13.07,2.91"/><path id="Fill-22" class="cls-2" d="M529.2,327.52c15.81,0,28.62,11.49,28.62,25.66a23.69,23.69,0,0,1-4.73,14.13c0.39,4.68,1.52,11.28,4.73,14.49,0,0-9.81-1.38-16.46-5.39a31.3,31.3,0,0,1-12.16,2.43c-15.81,0-28.62-11.49-28.62-25.66s12.81-25.66,28.62-25.66h0Z"/><path id="Stroke-23" class="cls-4" d="M529.2,327.52c15.81,0,28.62,11.49,28.62,25.66a23.69,23.69,0,0,1-4.73,14.13c0.39,4.68,1.52,11.28,4.73,14.49,0,0-9.81-1.38-16.46-5.39a31.3,31.3,0,0,1-12.16,2.43c-15.81,0-28.62-11.49-28.62-25.66s12.81-25.66,28.62-25.66h0Z"/><path id="Fill-24" class="cls-1" d="M519.1,353.18a5.05,5.05,0,1,1-5.05-5.05,5.05,5.05,0,0,1,5.05,5.05h0Z"/><path id="Stroke-25" class="cls-4" d="M519.1,353.18a5.05,5.05,0,1,1-5.05-5.05,5.05,5.05,0,0,1,5.05,5.05h0Z"/><path id="Fill-26" class="cls-1" d="M534.25,353.18a5.05,5.05,0,1,1-5.05-5.05,5.05,5.05,0,0,1,5.05,5.05h0Z"/><path id="Stroke-27" class="cls-4" d="M534.25,353.18a5.05,5.05,0,1,1-5.05-5.05,5.05,5.05,0,0,1,5.05,5.05h0Z"/><path id="Fill-28" class="cls-1" d="M549.41,353.18a5.05,5.05,0,1,1-5.05-5.05,5.05,5.05,0,0,1,5.05,5.05h0Z"/><path id="Stroke-29" class="cls-4" d="M549.41,353.18a5.05,5.05,0,1,1-5.05-5.05,5.05,5.05,0,0,1,5.05,5.05h0Z"/><path id="Fill-36" class="cls-1" d="M500.58,353.18c0-14.17,12.81-25.66,28.62-25.66,12.46,0,23,7.15,27,17.12a48,48,0,1,0-87.6,12l-8.4,25.19,27.34-7.19a48,48,0,0,0,35.6,3.64c-12.88-2.51-22.53-12.77-22.53-25.07h0Z"/><path id="Stroke-37" class="cls-4" d="M500.58,353.18c0-14.17,12.81-25.66,28.62-25.66,12.46,0,23,7.15,27,17.12a48,48,0,1,0-87.6,12l-8.4,25.19,27.34-7.19a48,48,0,0,0,35.6,3.64c-12.88-2.51-22.53-12.77-22.53-25.07h0Z"/></g></g><g id="Page-1-4" data-name="Page-1"><g id="x36"><path id="Fill-136" class="cls-2" d="M180.66,173.26c-7.37,9.63-28.87,41.74-29.54,89.16a1.71,1.71,0,0,0,1.8,1.73c6.72-.4,30.41-2.54,43.22-13.09A2.52,2.52,0,0,0,197,249c-0.42-8.71-3.22-60.1-11.32-75.32a3,3,0,0,0-5.06-.39h0Z"/><path id="Stroke-137" class="cls-3" d="M180.66,173.26c-7.37,9.63-28.87,41.74-29.54,89.16a1.71,1.71,0,0,0,1.8,1.73c6.72-.4,30.41-2.54,43.22-13.09A2.52,2.52,0,0,0,197,249c-0.42-8.71-3.22-60.1-11.32-75.32a3,3,0,0,0-5.06-.39h0Z"/><path id="Stroke-138" class="cls-4" d="M165.12,200.07l24-13.92m-28,25.92,30-16m-34,28,36-18m-38,30,38-18m-40,30,42-20m-44,34,44-22m-34,24.08v12"/><path id="Fill-139" class="cls-2" d="M131.12,272.12l12.61,11.5a9.89,9.89,0,0,0,3.32.53h67.79a4.15,4.15,0,0,0,4.16-3.33,4,4,0,0,0-3.94-4.67H147c-0.07,0-14.65-3.76-15.91-4.08,0,0,0,0,0,0h0Z"/><path id="Stroke-140" class="cls-3" d="M131.12,272.12l12.61,11.5a9.89,9.89,0,0,0,3.32.53h67.79a4.15,4.15,0,0,0,4.16-3.33,4,4,0,0,0-3.94-4.67H147c-0.07,0-14.65-3.76-15.91-4.08,0,0,0,0,0,0h0Z"/><path id="Stroke-141" class="cls-3" d="M161,264.07l12,12"/><path id="Fill-142" class="cls-2" d="M239.11,188.07a14,14,0,1,1-14-14,14,14,0,0,1,14,14h0Z"/><path id="Stroke-143" class="cls-4" d="M239.11,188.07a14,14,0,1,1-14-14,14,14,0,0,1,14,14h0Z"/><path id="Stroke-144" class="cls-4" d="M225.11,174.07v-6m0,40v-6m14-14h6m-40,0h6m4.1-9.9L211,173.93m28.28,28.28L235,198m0-19.8,4.24-4.24M211,202.21l4.24-4.24m-86.1,86.1h116"/></g></g><g id="Page-1-5" data-name="Page-1"><g id="w57"><path id="Fill-1115" class="cls-2" d="M419.82,236.17H360.18A4.18,4.18,0,0,1,356,232V124.35a4.18,4.18,0,0,1,4.18-4.18h59.65a4.18,4.18,0,0,1,4.18,4.18V232a4.18,4.18,0,0,1-4.18,4.18h0Z"/><path id="Stroke-1116" class="cls-6" d="M419.82,236.17H360.18A4.18,4.18,0,0,1,356,232V124.35a4.18,4.18,0,0,1,4.18-4.18h59.65a4.18,4.18,0,0,1,4.18,4.18V232a4.18,4.18,0,0,1-4.18,4.18h0Z"/><path id="Fill-1592" class="cls-1" d="M356,132.17h68v86H356v-86Z"/><path id="Stroke-1593" class="cls-6" d="M356,132.17h68v86H356v-86Z"/><path id="Stroke-1594" class="cls-6" d="M362,146.17l8-8m-8,18,4-4m8-8,6-6m-18,28,18-18m8-8,2-2m-6-12h12m16,0h2m-10,0h2"/><path id="Fill-1595" class="cls-1" d="M395,230.17H385a3,3,0,0,1,0-6h10a3,3,0,0,1,0,6h0Z"/><path id="Stroke-1596" class="cls-6" d="M395,230.17H385a3,3,0,0,1,0-6h10a3,3,0,0,1,0,6h0Z"/></g></g><g id="Page-1-6" data-name="Page-1"><g id="w7"><path id="Fill-35" class="cls-2" d="M147.26,613.6a4.1,4.1,0,0,1-3.85,2.73H121.54a4.1,4.1,0,0,1-3.85-2.73H53.38a1.58,1.58,0,0,0-1.58,1.58V623a1.58,1.58,0,0,0,1.58,1.58H208.84a1.58,1.58,0,0,0,1.58-1.58v-7.78a1.58,1.58,0,0,0-1.58-1.58H147.26Z"/><path id="Stroke-36" class="cls-6" d="M147.26,613.6a4.1,4.1,0,0,1-3.85,2.73H121.54a4.1,4.1,0,0,1-3.85-2.73H53.38a1.58,1.58,0,0,0-1.58,1.58V623a1.58,1.58,0,0,0,1.58,1.58H208.84a1.58,1.58,0,0,0,1.58-1.58v-7.78a1.58,1.58,0,0,0-1.58-1.58H147.26Z"/><path id="Fill-37" class="cls-2" d="M117.69,613.6a4.1,4.1,0,0,0,3.85,2.73h21.88a4.1,4.1,0,0,0,3.85-2.73h55V523.54a8.39,8.39,0,0,0-8.39-8.39H68.39A8.39,8.39,0,0,0,60,523.54V613.6h57.69Z"/><path id="Stroke-38" class="cls-6" d="M117.69,613.6a4.1,4.1,0,0,0,3.85,2.73h21.88a4.1,4.1,0,0,0,3.85-2.73h55V523.54a8.39,8.39,0,0,0-8.39-8.39H68.39A8.39,8.39,0,0,0,60,523.54V613.6h57.69Z"/><path id="Fill-1444" class="cls-1" d="M68.21,523.35H194v82H68.21v-82Z"/><path id="Stroke-1445" class="cls-6" d="M68.21,523.35H194v82H68.21v-82Z"/><path id="Stroke-1446" class="cls-6" d="M81.88,548L92.82,537M81.88,561.64l5.47-5.47m10.94-10.94,8.2-8.2M81.88,575.31L106.5,550.7m10.94-10.94,2.73-2.73"/></g></g><g id="Page-1-7" data-name="Page-1"><g id="w36"><path id="Path-2" data-name="Path" class="cls-7" d="M353.56,716.34a24,24,0,1,1-24-24,24,24,0,0,1,24,24h0Z"/><path id="Path-3" data-name="Path" class="cls-7" d="M289.56,668.34v33.08a38.9,38.9,0,0,0,38.92,38.92c25.81,0,47.08-14.89,47.08-40.7v-9.3"/><path id="Path-4" data-name="Path" class="cls-7" d="M359.56,710.34a30,30,0,1,1-30-30,30,30,0,0,1,30,30h0Z"/><path id="Fill-184" class="cls-2" d="M287.56,648.34h8v22h-8v-22Z"/><path id="Stroke-185" class="cls-7" d="M287.56,648.34h8v22h-8v-22Z"/><path id="Fill-186" class="cls-2" d="M295.56,652.34h6v14h-6v-14Z"/><path id="Stroke-187" class="cls-7" d="M295.56,652.34h6v14h-6v-14Z"/><path id="Fill-188" class="cls-2" d="M371.56,682.34h8v10h-8v-10Z"/><path id="Stroke-189" class="cls-7" d="M371.56,682.34h8v10h-8v-10Z"/><path id="Fill-190" class="cls-2" d="M394.85,682.34h-38.6a2.7,2.7,0,0,1-2.7-2.7V643a2.7,2.7,0,0,1,2.7-2.7h38.6a2.7,2.7,0,0,1,2.7,2.7v36.6a2.7,2.7,0,0,1-2.7,2.7h0Z"/><path id="Stroke-191" class="cls-7" d="M394.85,682.34h-38.6a2.7,2.7,0,0,1-2.7-2.7V643a2.7,2.7,0,0,1,2.7-2.7h38.6a2.7,2.7,0,0,1,2.7,2.7v36.6a2.7,2.7,0,0,1-2.7,2.7h0Z"/><path id="Stroke-192" class="cls-7" d="M359.56,632.34v8m8-8v8"/><path id="Fill-193" class="cls-2" d="M370.85,656.34h-14.6a2.7,2.7,0,0,1-2.7-2.7V643a2.7,2.7,0,0,1,2.7-2.7h14.6a2.7,2.7,0,0,1,2.7,2.7v10.6a2.7,2.7,0,0,1-2.7,2.7h0Z"/><path id="Stroke-194" class="cls-6" d="M370.85,656.34h-14.6a2.7,2.7,0,0,1-2.7-2.7V643a2.7,2.7,0,0,1,2.7-2.7h14.6a2.7,2.7,0,0,1,2.7,2.7v10.6a2.7,2.7,0,0,1-2.7,2.7h0Z"/></g></g><g id="Page-1-8" data-name="Page-1"><g id="g374"><path id="Fill-368" class="cls-1" d="M748.06,119H657L667,59.41h71.17L748.06,119h0Z"/><path id="Stroke-369" class="cls-4" d="M748.06,119H657L667,59.41h71.17L748.06,119h0Z"/><path id="Fill-370" class="cls-2" d="M748.06,119H657l2.34-11.59h86.35L748.06,119h0Z"/><path id="Stroke-371" class="cls-4" d="M748.06,119H657l2.34-11.59h86.35L748.06,119h0Z"/><path id="Fill-372" class="cls-1" d="M696.75,137.2h11.59V119H696.75V137.2Z"/><path id="Stroke-373" class="cls-4" d="M696.75,137.2h11.59V119H696.75V137.2Z"/><path id="Stroke-374" class="cls-4" d="M680.2,72.65V54.45a8.28,8.28,0,1,1,16.55,0"/><path id="Fill-375" class="cls-1" d="M691.78,137.2H713.3v5H691.78v-5Z"/><path id="Stroke-376" class="cls-4" d="M691.78,137.2H713.3v5H691.78v-5Z"/></g></g></svg>