<?xml version="1.0" encoding="utf-8"?>
<!-- Generator: Adobe Illustrator 19.2.1, SVG Export Plug-In . SVG Version: 6.00 Build 0)  -->
<svg version="1.1" id="Layer_1" xmlns:sketch="http://www.bohemiancoding.com/sketch/ns"
	 xmlns="http://www.w3.org/2000/svg" xmlns:xlink="http://www.w3.org/1999/xlink" x="0px" y="0px" viewBox="0 0 106 98"
	 style="enable-background:new 0 0 106 98;" xml:space="preserve">
<style type="text/css">
	.st0{fill:#42B05C;}
	.st1{fill:#48A0DC;}
	.st2{fill:#3D994F;}
	.st3{fill:#4393BF;}
	.st4{fill:#F0CE49;}
	.st5{fill:#D6B445;}
	.st6{fill:none;stroke:#556080;stroke-width:4;stroke-linecap:round;}
	.st7{fill:#DD342E;}
	.st8{fill:#F86363;}
</style>
<title>g221</title>
<desc>Created with Sketch.</desc>
<g id="Page-1" sketch:type="MSPage">
	<g id="g221" sketch:type="MSLayerGroup">
		<path id="Fill-2653" sketch:type="MSShapeGroup" class="st0" d="M36,42.5L4.5,11L0,12v86l4.2-0.9L36,65.3V42.5"/>
		<path id="Fill-2654" sketch:type="MSShapeGroup" class="st1" d="M18.7,93.8L36,90V76.6L18.7,93.8"/>
		<path id="Fill-2655" sketch:type="MSShapeGroup" class="st0" d="M36,4L13.8,8.9L36,31.2V4"/>
		<path id="Fill-2656" sketch:type="MSShapeGroup" class="st0" d="M98.9,2.4L70,12v19.3L98.9,2.4"/>
		<path id="Fill-2657" sketch:type="MSShapeGroup" class="st1" d="M70,42.6V96l36-14V6.6L70,42.6"/>
		<path id="Fill-2658" sketch:type="MSShapeGroup" class="st2" d="M53,48.2l17-17V12L36,4v27.2L53,48.2"/>
		<path id="Fill-2659" sketch:type="MSShapeGroup" class="st2" d="M36,42.5v22.8l11.4-11.4L36,42.5"/>
		<path id="Fill-2660" sketch:type="MSShapeGroup" class="st3" d="M36,76.6V90l34,6V42.6L36,76.6"/>
		<path id="Fill-2661" sketch:type="MSShapeGroup" class="st4" d="M36,31.2L13.8,8.9L4.5,11L36,42.5V31.2"/>
		<path id="Fill-2662" sketch:type="MSShapeGroup" class="st4" d="M36,65.3L4.2,97.1l14.5-3.2L36,76.6V65.3"/>
		<path id="Fill-2663" sketch:type="MSShapeGroup" class="st4" d="M70,42.6l36-36V0l-7.1,2.4L70,31.3V42.6"/>
		<path id="Fill-2664" sketch:type="MSShapeGroup" class="st5" d="M53,48.2l-17-17v11.3l11.4,11.4L36,65.3v11.3l34-34V31.3L53,48.2"
			/>
	</g>
</g>
<g id="Page-1_1_" sketch:type="MSPage">
	<g id="g75" sketch:type="MSLayerGroup">
		<path id="Stroke-276" sketch:type="MSShapeGroup" class="st6" d="M51,27v26.9"/>
		<path id="Fill-621" sketch:type="MSShapeGroup" class="st7" d="M64,14c0,7.2-5.8,13-13,13s-13-5.8-13-13S43.8,1,51,1S64,6.8,64,14
			"/>
		<path id="Fill-622" sketch:type="MSShapeGroup" class="st8" d="M49.1,10.3c0,1.5-1.2,2.8-2.8,2.8s-2.8-1.2-2.8-2.8
			s1.2-2.8,2.8-2.8S49.1,8.7,49.1,10.3"/>
	</g>
</g>
</svg>
