<?xml version="1.0" encoding="utf-8"?>
<!-- Generator: Adobe Illustrator 19.2.1, SVG Export Plug-In . SVG Version: 6.00 Build 0)  -->
<svg version="1.1" id="Layer_1" xmlns:sketch="http://www.bohemiancoding.com/sketch/ns"
	 xmlns="http://www.w3.org/2000/svg" xmlns:xlink="http://www.w3.org/1999/xlink" x="0px" y="0px" viewBox="0 0 112 116"
	 style="enable-background:new 0 0 112 116;" xml:space="preserve">
<style type="text/css">
	.st0{fill:#CEC9AE;}
	.st1{fill:#EDEBDA;}
	.st2{fill:#F4F3ED;}
	.st3{fill:#61B972;}
	.st4{fill:#F8B563;}
	.st5{fill:#8E8872;}
</style>
<title>g350</title>
<desc>Created with Sketch.</desc>
<g id="Page-1" sketch:type="MSPage">
	<g id="g350" sketch:type="MSLayerGroup">
		<path id="Fill-11" sketch:type="MSShapeGroup" class="st0" d="M10,116L10,116c-5.5,0-10-4.5-10-10V60h20v46
			C20,111.5,15.5,116,10,116"/>
		<path id="Fill-12" sketch:type="MSShapeGroup" class="st0" d="M20,0h92v22H20V0z"/>
		<path id="Fill-13" sketch:type="MSShapeGroup" class="st1" d="M20,70v36c0,5.5-4.5,10-10,10h92c5.5,0,10-4.5,10-10V26H20V70"/>
		<path id="Fill-14" sketch:type="MSShapeGroup" class="st2" d="M20,22h92v4H20V22z"/>
		<path id="Fill-1643" sketch:type="MSShapeGroup" class="st3" d="M32,32h24v24H32V32z"/>
		<path id="Fill-1644" sketch:type="MSShapeGroup" class="st0" d="M100,34H68c-1.1,0-2-0.9-2-2c0-1.1,0.9-2,2-2h32c1.1,0,2,0.9,2,2
			C102,33.1,101.1,34,100,34"/>
		<path id="Fill-1645" sketch:type="MSShapeGroup" class="st0" d="M100,46H68c-1.1,0-2-0.9-2-2s0.9-2,2-2h32c1.1,0,2,0.9,2,2
			S101.1,46,100,46"/>
		<path id="Fill-1646" sketch:type="MSShapeGroup" class="st0" d="M100,58H68c-1.1,0-2-0.9-2-2s0.9-2,2-2h32c1.1,0,2,0.9,2,2
			S101.1,58,100,58"/>
		<path id="Fill-1647" sketch:type="MSShapeGroup" class="st0" d="M100,70H34c-1.1,0-2-0.9-2-2s0.9-2,2-2h66c1.1,0,2,0.9,2,2
			S101.1,70,100,70"/>
		<path id="Fill-1648" sketch:type="MSShapeGroup" class="st0" d="M64,82H34c-1.1,0-2-0.9-2-2s0.9-2,2-2h30c1.1,0,2,0.9,2,2
			S65.1,82,64,82"/>
		<path id="Fill-1649" sketch:type="MSShapeGroup" class="st0" d="M64,94H34c-1.1,0-2-0.9-2-2s0.9-2,2-2h30c1.1,0,2,0.9,2,2
			S65.1,94,64,94"/>
		<path id="Fill-1650" sketch:type="MSShapeGroup" class="st0" d="M64,106H34c-1.1,0-2-0.9-2-2s0.9-2,2-2h30c1.1,0,2,0.9,2,2
			S65.1,106,64,106"/>
		<path id="Fill-1651" sketch:type="MSShapeGroup" class="st4" d="M76,80h24v24H76V80z"/>
		<path id="Fill-1652" sketch:type="MSShapeGroup" class="st5" d="M44,8h44v8H44V8z"/>
	</g>
</g>
</svg>
