<?xml version="1.0" encoding="utf-8"?>
<!-- Generator: Adobe Illustrator 19.2.1, SVG Export Plug-In . SVG Version: 6.00 Build 0)  -->
<svg version="1.1" id="Layer_1" xmlns:sketch="http://www.bohemiancoding.com/sketch/ns"
	 xmlns="http://www.w3.org/2000/svg" xmlns:xlink="http://www.w3.org/1999/xlink" x="0px" y="0px" viewBox="0 0 116 98"
	 style="enable-background:new 0 0 116 98;" xml:space="preserve">
<style type="text/css">
	.st0{fill:#D6C990;}
	.st1{fill:#F8E7A1;}
	.st2{fill:#7383BF;}
	.st3{fill:#6472A0;}
	.st4{fill:#D1AF43;}
	.st5{fill:#F0CE49;}
</style>
<title>g223</title>
<desc>Created with Sketch.</desc>
<g id="Page-1" sketch:type="MSPage">
	<g id="g223" sketch:type="MSLayerGroup">
		<path id="Fill-2665" sketch:type="MSShapeGroup" class="st0" d="M0,52.2V98l5.6-2.2l19-19L0,52.2"/>
		<path id="Fill-2666" sketch:type="MSShapeGroup" class="st0" d="M30,10l-7.2-7.2L0,12v9.1l30,30V10"/>
		<path id="Fill-2667" sketch:type="MSShapeGroup" class="st1" d="M58,43.3V38L30,10v41l10.1,10.1L58,43.3"/>
		<path id="Fill-2668" sketch:type="MSShapeGroup" class="st2" d="M58,79.1v-4.6l-2.3,2.3L58,79.1"/>
		<path id="Fill-2669" sketch:type="MSShapeGroup" class="st3" d="M76.2,56.2L58,74.5v4.6l13.3,13.3L86,86V66L76.2,56.2"/>
		<path id="Fill-2670" sketch:type="MSShapeGroup" class="st0" d="M86,15.3V0L61.6,10.5l14.7,14.7L86,15.3"/>
		<path id="Fill-2671" sketch:type="MSShapeGroup" class="st0" d="M60.7,40.7L58,38v5.3L60.7,40.7"/>
		<path id="Fill-2672" sketch:type="MSShapeGroup" class="st1" d="M96.5,4.9L86,0v15.3L96.5,4.9"/>
		<path id="Fill-2673" sketch:type="MSShapeGroup" class="st2" d="M116,64.9V16.5L91.8,40.7L116,64.9"/>
		<path id="Fill-2674" sketch:type="MSShapeGroup" class="st2" d="M86,86l30,12v-2L86,66V86"/>
		<path id="Fill-2675" sketch:type="MSShapeGroup" class="st4" d="M30,71.3V51.1l-30-30v31.1l24.6,24.6L30,71.3"/>
		<path id="Fill-2676" sketch:type="MSShapeGroup" class="st5" d="M41.5,90.9L58,98V79.1l-2.3-2.3L41.5,90.9"/>
		<path id="Fill-2677" sketch:type="MSShapeGroup" class="st5" d="M30,51.1v20.3l10.1-10.1L30,51.1"/>
		<path id="Fill-2678" sketch:type="MSShapeGroup" class="st4" d="M58,98l13.3-5.7L58,79.1V98"/>
		<path id="Fill-2679" sketch:type="MSShapeGroup" class="st4" d="M30,0l-7.2,2.9L30,10V0"/>
		<path id="Fill-2680" sketch:type="MSShapeGroup" class="st5" d="M58,12L30,0v10l28,28V12"/>
		<path id="Fill-2681" sketch:type="MSShapeGroup" class="st0" d="M58,38l2.7,2.7l15.6-15.6L61.6,10.5L58,12V38"/>
		<path id="Fill-2682" sketch:type="MSShapeGroup" class="st4" d="M86,66V46.5l-9.8,9.8L86,66"/>
		<path id="Fill-2682_1_" sketch:type="MSShapeGroup" class="st4" d="M86,66V46.5l-9.8,9.8L86,66"/>
		<path id="Fill-2688" sketch:type="MSShapeGroup" class="st4" d="M58,43.3v31.1l18.2-18.2L60.7,40.7L58,43.3"/>
		<path id="Fill-2683" sketch:type="MSShapeGroup" class="st5" d="M91.8,40.7L86,46.5V66l30,30V64.9L91.8,40.7"/>
		<path id="Fill-2684" sketch:type="MSShapeGroup" class="st4" d="M30,82.2l-5.4-5.4l-19,19L30,86V82.2"/>
		<path id="Fill-2685" sketch:type="MSShapeGroup" class="st5" d="M30,86l6.7,2.9L30,82.2V86"/>
		<path id="Fill-2686" sketch:type="MSShapeGroup" class="st5" d="M40.1,61.2l15.6,15.6l2.3-2.3V43.3L40.1,61.2"/>
		<path id="Fill-2687" sketch:type="MSShapeGroup" class="st4" d="M86,15.3l-9.8,9.8l9.8,9.8V15.3"/>
		<path id="Fill-2688_1_" sketch:type="MSShapeGroup" class="st4" d="M58,43.3v31.1l18.2-18.2L60.7,40.7L58,43.3"/>
		<path id="Fill-2689" sketch:type="MSShapeGroup" class="st5" d="M86,34.9l5.8,5.8L116,16.5V14L96.5,4.9L86,15.3V34.9"/>
		<path id="Fill-2690" sketch:type="MSShapeGroup" class="st4" d="M24.6,76.8l5.4,5.4V71.3L24.6,76.8"/>
		<path id="Fill-2691" sketch:type="MSShapeGroup" class="st5" d="M40.1,61.2L30,71.3v10.8l6.7,6.7l4.8,2.1l14.2-14.2L40.1,61.2"/>
		<path id="Fill-2692" sketch:type="MSShapeGroup" class="st4" d="M76.2,25.1L60.7,40.7l15.6,15.6l9.8-9.8V34.9L76.2,25.1"/>
		<path id="Fill-2670_1_" sketch:type="MSShapeGroup" class="st0" d="M86,15.3V0L61.6,10.5l14.7,14.7L86,15.3"/>
		<path id="Fill-2676_1_" sketch:type="MSShapeGroup" class="st5" d="M41.5,90.9L58,98V79.1l-2.3-2.3L41.5,90.9"/>
		<path id="Fill-2677_1_" sketch:type="MSShapeGroup" class="st5" d="M30,51.1v20.3l10.1-10.1L30,51.1"/>
		<path id="Fill-2684_1_" sketch:type="MSShapeGroup" class="st4" d="M30,82.2l-5.4-5.4l-19,19L30,86V82.2"/>
		<path id="Fill-2686_1_" sketch:type="MSShapeGroup" class="st5" d="M40.1,61.2l15.6,15.6l2.3-2.3V43.3L40.1,61.2"/>
		<path id="Fill-2687_1_" sketch:type="MSShapeGroup" class="st4" d="M86,15.3l-9.8,9.8l9.8,9.8V15.3"/>
		<path id="Fill-2690_1_" sketch:type="MSShapeGroup" class="st4" d="M24.6,76.8l5.4,5.4V71.3L24.6,76.8"/>
		<path id="Fill-2691_1_" sketch:type="MSShapeGroup" class="st5" d="M40.1,61.2L30,71.3v10.8l6.7,6.7l4.8,2.1l14.2-14.2L40.1,61.2"
			/>
		<path id="Fill-2692_1_" sketch:type="MSShapeGroup" class="st4" d="M76.2,25.1L60.7,40.7l15.6,15.6l9.8-9.8V34.9L76.2,25.1"/>
		<path id="Fill-2693" sketch:type="MSShapeGroup" class="st5" d="M86,46.5l5.8-5.8L86,34.9V46.5"/>
		<path id="Fill-2693_1_" sketch:type="MSShapeGroup" class="st5" d="M86,46.5l5.8-5.8L86,34.9V46.5"/>
		<path id="Fill-2681_1_" sketch:type="MSShapeGroup" class="st4" d="M58,38l2.7,2.7l15.6-15.6L61.6,10.5L58,12V38"/>
	</g>
</g>
</svg>
