<?xml version="1.0" encoding="utf-8"?>
<!-- Generator: Adobe Illustrator 19.2.1, SVG Export Plug-In . SVG Version: 6.00 Build 0)  -->
<svg version="1.1" id="Layer_1" xmlns:sketch="http://www.bohemiancoding.com/sketch/ns"
	 xmlns="http://www.w3.org/2000/svg" xmlns:xlink="http://www.w3.org/1999/xlink" x="0px" y="0px" viewBox="0 0 108 116"
	 style="enable-background:new 0 0 108 116;" xml:space="preserve">
<style type="text/css">
	.st0{fill:#C2001D;}
	.st1{fill:#EDEBDA;}
	.st2{fill:#CEC9AE;}
	.st3{fill:#28384B;}
	.st4{fill:#25B99A;}
</style>
<title>g348</title>
<desc>Created with Sketch.</desc>
<g id="Page-1" sketch:type="MSPage">
	<g id="g348" sketch:type="MSLayerGroup">
		<path id="Fill-1690" sketch:type="MSShapeGroup" class="st0" d="M92,8v8H78V8H30v8H16V8H0v22h108V8H92"/>
		<path id="Fill-1691" sketch:type="MSShapeGroup" class="st1" d="M16,30H0v86h108V30H16"/>
		<path id="Fill-1692" sketch:type="MSShapeGroup" class="st2" d="M74,44H16v58h76V44H74L74,44z M56,48h14v14H56V48z M56,66h14v14
			H56V66z M38,66h14v14H38V66z M38,48h14v14H38V48z M20,48h14v14H20V48z M20,66h14v14H20V66z M20,84h14v14H20V84z M38,84h14v14H38
			V84z M56,84h14v14H56V84z M74,84h14v14H74V84z M74,66h14v14H74V66z M74,48h14v14H74V48z"/>
		<path id="Fill-3129" sketch:type="MSShapeGroup" class="st3" d="M16,0h14v16H16V0z"/>
		<path id="Fill-3130" sketch:type="MSShapeGroup" class="st3" d="M78,0h14v16H78V0z"/>
		<path id="Fill-3131" sketch:type="MSShapeGroup" class="st4" d="M56,66h14v14H56V66z"/>
	</g>
</g>
</svg>
