<svg id="Layer_1" data-name="Layer 1" xmlns="http://www.w3.org/2000/svg" viewBox="0 0 717.96 629.33"><defs><style>.cls-1{fill:#0072ff;stroke-miterlimit:10;}.cls-1,.cls-2,.cls-3,.cls-4,.cls-5,.cls-6,.cls-7{stroke:#0072ff;}.cls-2,.cls-7{fill:#bbdefb;}.cls-2,.cls-4,.cls-6{stroke-linecap:round;}.cls-2,.cls-3,.cls-4,.cls-5,.cls-6,.cls-7{stroke-linejoin:round;stroke-width:4px;}.cls-3,.cls-4{fill:none;}.cls-5,.cls-6{fill:#fff;}</style></defs><title>myschedule_placeholder</title><rect class="cls-1" x="115.92" y="598.4" width="198.4" height="2" rx="1" ry="1"/><g id="Page-1"><g id="g360"><path id="Path" class="cls-2" d="M271.45,310.05l190.38,43.44L497,199.22,306.65,155.78Z" transform="translate(-41.02 -85.33)"/><path id="Stroke-250" class="cls-3" d="M419.3,100.8a13.47,13.47,0,1,1-13.47-13.47A13.47,13.47,0,0,1,419.3,100.8h0Zm-3.44-8.91a13.47,13.47,0,1,1-20.06,0c-19.72,12.42-47.5,73.39-47.5,73.39l110.48,25.21s-23.2-86.18-42.92-98.6h0Z" transform="translate(-41.02 -85.33)"/><path id="Fill-275" class="cls-1" d="M370.16,225.52a3.37,3.37,0,1,1-2.53-4,3.37,3.37,0,0,1,2.53,4" transform="translate(-41.02 -85.33)"/><path id="Fill-276" class="cls-1" d="M393.14,230.76a3.37,3.37,0,1,1-2.53-4,3.37,3.37,0,0,1,2.53,4" transform="translate(-41.02 -85.33)"/><path id="Fill-277" class="cls-1" d="M416.11,236a3.37,3.37,0,1,1-2.53-4,3.37,3.37,0,0,1,2.53,4" transform="translate(-41.02 -85.33)"/><path id="Fill-278" class="cls-1" d="M439.09,241.25a3.37,3.37,0,1,1-2.53-4,3.37,3.37,0,0,1,2.53,4" transform="translate(-41.02 -85.33)"/><path id="Fill-279" class="cls-1" d="M462.07,246.49a3.37,3.37,0,1,1-2.53-4,3.37,3.37,0,0,1,2.53,4" transform="translate(-41.02 -85.33)"/><path id="Fill-280" class="cls-1" d="M318.21,241.3a3.37,3.37,0,1,1-2.53-4,3.37,3.37,0,0,1,2.53,4" transform="translate(-41.02 -85.33)"/><path id="Fill-281" class="cls-1" d="M341.19,246.54a3.37,3.37,0,1,1-2.53-4,3.37,3.37,0,0,1,2.53,4" transform="translate(-41.02 -85.33)"/><path id="Fill-282" class="cls-1" d="M364.17,251.78a3.37,3.37,0,1,1-2.53-4,3.37,3.37,0,0,1,2.53,4" transform="translate(-41.02 -85.33)"/><path id="Fill-283" class="cls-1" d="M387.14,257a3.37,3.37,0,1,1-2.53-4,3.37,3.37,0,0,1,2.53,4" transform="translate(-41.02 -85.33)"/><path id="Fill-284" class="cls-1" d="M410.12,262.27a3.37,3.37,0,1,1-2.53-4,3.37,3.37,0,0,1,2.53,4" transform="translate(-41.02 -85.33)"/><path id="Fill-285" class="cls-1" d="M433.1,267.51a3.37,3.37,0,1,1-2.53-4,3.37,3.37,0,0,1,2.53,4" transform="translate(-41.02 -85.33)"/><path id="Fill-286" class="cls-1" d="M456.08,272.75a3.37,3.37,0,1,1-2.53-4,3.37,3.37,0,0,1,2.53,4" transform="translate(-41.02 -85.33)"/><path id="Fill-287" class="cls-1" d="M313,264.27a3.37,3.37,0,1,1-2.53-4,3.37,3.37,0,0,1,2.53,4" transform="translate(-41.02 -85.33)"/><path id="Fill-288" class="cls-1" d="M335.95,269.52a3.37,3.37,0,1,1-2.53-4,3.37,3.37,0,0,1,2.53,4" transform="translate(-41.02 -85.33)"/><path id="Fill-289" class="cls-1" d="M358.92,274.76a3.37,3.37,0,1,1-2.53-4,3.37,3.37,0,0,1,2.53,4" transform="translate(-41.02 -85.33)"/><path id="Fill-290" class="cls-1" d="M381.9,280a3.37,3.37,0,1,1-2.53-4,3.37,3.37,0,0,1,2.53,4" transform="translate(-41.02 -85.33)"/><path id="Fill-291" class="cls-1" d="M404.88,285.24a3.37,3.37,0,1,1-2.53-4,3.37,3.37,0,0,1,2.53,4" transform="translate(-41.02 -85.33)"/><path id="Fill-292" class="cls-1" d="M427.86,290.49a3.37,3.37,0,1,1-2.53-4,3.37,3.37,0,0,1,2.53,4" transform="translate(-41.02 -85.33)"/><path id="Fill-293" class="cls-1" d="M450.83,295.73a3.37,3.37,0,1,1-2.53-4,3.37,3.37,0,0,1,2.53,4" transform="translate(-41.02 -85.33)"/><path id="Fill-294" class="cls-1" d="M307,290.53a3.37,3.37,0,1,1-2.53-4,3.37,3.37,0,0,1,2.53,4" transform="translate(-41.02 -85.33)"/><path id="Fill-295" class="cls-1" d="M330,295.78a3.37,3.37,0,1,1-2.53-4,3.37,3.37,0,0,1,2.53,4" transform="translate(-41.02 -85.33)"/><path id="Fill-296" class="cls-1" d="M352.93,301a3.37,3.37,0,1,1-2.53-4,3.37,3.37,0,0,1,2.53,4" transform="translate(-41.02 -85.33)"/><path id="Fill-297" class="cls-1" d="M375.91,306.26a3.37,3.37,0,1,1-2.53-4,3.37,3.37,0,0,1,2.53,4" transform="translate(-41.02 -85.33)"/><path id="Fill-298" class="cls-1" d="M398.89,311.5a3.37,3.37,0,1,1-2.53-4,3.37,3.37,0,0,1,2.53,4" transform="translate(-41.02 -85.33)"/><path id="Stroke-299" class="cls-4" d="M301.4,178.75l190.38,43.44" transform="translate(-41.02 -85.33)"/></g></g><rect class="cls-1" x="0.5" y="491.61" width="716.96" height="2" rx="1" ry="1"/><g id="Page-1-2" data-name="Page-1"><g id="x32"><path id="Stroke-170" class="cls-5" d="M482.49,465.47v-23.8a45.15,45.15,0,0,1,45.09-45.09A44.52,44.52,0,0,1,572,441v24.43m48.45,0H561.71a34.45,34.45,0,0,1-68.89,0H434a3.37,3.37,0,0,0-3.32,4l21.77,119.38a9.55,9.55,0,0,0,9.33,7.54h130.9a9.54,9.54,0,0,0,9.33-7.54l21.77-119.38a3.37,3.37,0,0,0-3.32-4h0Zm-138,0v-23.8a45.15,45.15,0,0,1,45.09-45.09A44.52,44.52,0,0,1,572,441v24.43m-89.56,0v-23.8a45.15,45.15,0,0,1,45.09-45.09A44.52,44.52,0,0,1,572,441v24.43" transform="translate(-41.02 -85.33)"/><path id="Stroke-171" class="cls-6" d="M551.38,548.14A24.11,24.11,0,1,1,527.27,524a24.11,24.11,0,0,1,24.11,24.11h0ZM527.27,524v0Zm0,58.56v0Zm24.11-34.45h0Zm-58.56,0h0Zm17.4-17.05-7.31-7.31Zm41.41,41.41-7.31-7.31Zm-7.31-41.41,7.31-7.31ZM502.91,572.5l7.31-7.31Z" transform="translate(-41.02 -85.33)"/><path id="Stroke-172" class="cls-5" d="M482.49,487.86a8.61,8.61,0,1,1-8.61-8.61,8.61,8.61,0,0,1,8.61,8.61h0Zm106.79,0a8.61,8.61,0,1,1-8.61-8.61,8.61,8.61,0,0,1,8.61,8.61h0Z" transform="translate(-41.02 -85.33)"/></g></g><g id="Page-1-3" data-name="Page-1"><g id="x25"><path id="Path-2" data-name="Path" class="cls-7" d="M252.5,712.67c9.53,0,17.26-7,17.26-15.57V669.31c0-6.29,1.91-14.52,3.2-18.9a19.41,19.41,0,0,0,.8-5.46V625.17c0-7.92-8.45-13.59-16.85-11.32l-18.72,5.07c-5.74,1.55-10.43,7.25-10.43,12.66v13.37a18.82,18.82,0,0,0,.77,5.35c1.28,4.35,5.23,12.68,5.23,19V697.1c0,8.59,7.71,15.56,17.22,15.57h1.51Z" transform="translate(-41.02 -85.33)"/><path id="Path-3" data-name="Path" class="cls-5" d="M271.93,654.26l0,0-14.14-15.6v-1.81c0-3.59-4.33-6.09-7.74-4.24a3.92,3.92,0,0,0-2.26,3.32v2.72l-17.33,17.07a62.48,62.48,0,0,1,2.9,9.76,4,4,0,0,0,1.11-.75L253.59,646a0.21,0.21,0,0,1,.31,0l14.28,18.67a4.38,4.38,0,0,0,1.41.91l0.38,0a82.08,82.08,0,0,1,2-11.29h0Z" transform="translate(-41.02 -85.33)"/><path id="Path-4" data-name="Path" class="cls-7" d="M307,712.67c-9.53,0-17.26-7-17.26-15.57V669.31c0-6.29-1.91-14.52-3.2-18.9a19.41,19.41,0,0,1-.8-5.46V625.17c0-7.92,8.45-13.59,16.85-11.32l18.72,5.07c5.74,1.55,10.43,7.25,10.43,12.66v13.37a18.82,18.82,0,0,1-.77,5.35c-1.28,4.35-5.23,12.68-5.23,19V697.1c0,8.59-7.71,15.56-17.22,15.57H307Z" transform="translate(-41.02 -85.33)"/><path id="Path-5" data-name="Path" class="cls-5" d="M287.59,654.26l0,0,14.14-15.6v-1.81c0-3.59,4.33-6.09,7.74-4.24a3.92,3.92,0,0,1,2.26,3.32v2.72l17.33,17.07a62.47,62.47,0,0,0-2.9,9.76,4,4,0,0,1-1.11-.75L305.93,646a0.21,0.21,0,0,0-.31,0l-14.28,18.67a4.38,4.38,0,0,1-1.41.91l-0.38,0a81.78,81.78,0,0,0-2-11.29h0Z" transform="translate(-41.02 -85.33)"/></g></g><rect class="cls-1" x="341.25" y="545.61" width="198.4" height="2" rx="1" ry="1"/><rect class="cls-1" x="510.61" y="579.27" width="102.76" height="2" rx="1" ry="1"/><rect class="cls-1" x="590.61" y="545.61" width="102.76" height="2" rx="1" ry="1"/><rect class="cls-1" x="509.61" y="611.27" width="175.12" height="2" rx="1" ry="1"/><rect class="cls-1" x="452.71" y="611.27" width="27.87" height="2" rx="1" ry="1"/><rect class="cls-1" x="25.58" y="545.61" width="116.74" height="2" rx="1" ry="1"/><path class="cls-5" d="M482.49,463.91v-23.8A45.15,45.15,0,0,1,527.58,395,44.52,44.52,0,0,1,572,439.49v24.43" transform="translate(-41.02 -85.33)"/><path class="cls-7" d="M620.5,465.64H561.71a34.45,34.45,0,0,1-68.89,0H434a3.37,3.37,0,0,0-3.32,4L452.49,589a9.55,9.55,0,0,0,9.33,7.54h130.9A9.54,9.54,0,0,0,602,589l21.77-119.38a3.37,3.37,0,0,0-3.32-4h0Z" transform="translate(-41.02 -85.33)"/><path id="Stroke-171-2" data-name="Stroke-171" class="cls-2" d="M551.8,549a24.11,24.11,0,1,1-24.11-24.11A24.11,24.11,0,0,1,551.8,549h0Zm-24.11-24.11v0Zm0,58.56v0ZM551.8,549h0Zm-58.56,0h0ZM510.64,532l-7.31-7.31ZM552,573.38l-7.31-7.31ZM544.74,532l7.31-7.31Zm-41.41,41.41,7.31-7.31Z" transform="translate(-41.02 -85.33)"/><path id="Stroke-172-2" data-name="Stroke-172" class="cls-5" d="M482.91,490.49a8.61,8.61,0,1,1-8.61-8.61,8.61,8.61,0,0,1,8.61,8.61h0Zm106.79,0a8.61,8.61,0,1,1-8.61-8.61,8.61,8.61,0,0,1,8.61,8.61h0Z" transform="translate(-41.02 -85.33)"/></svg>