<?xml version="1.0" encoding="utf-8"?>
<!-- Generator: Adobe Illustrator 19.1.0, SVG Export Plug-In . SVG Version: 6.00 Build 0)  -->
<svg version="1.1" id="Layer_1" xmlns="http://www.w3.org/2000/svg" xmlns:xlink="http://www.w3.org/1999/xlink" x="0px" y="0px"
	 viewBox="0 0 81.6 135.51" enable-background="new 0 0 81.6 135.51" xml:space="preserve">
<g>
	<defs>
		<rect id="SVGID_446_" x="-487.431" y="-8.357" width="417.344" height="152.224"/>
	</defs>
	<clipPath id="SVGID_2_">
		<use xlink:href="#SVGID_446_"  overflow="visible"/>
	</clipPath>
	<g opacity="0.25" clip-path="url(#SVGID_2_)">
		<radialGradient id="SVGID_4_" cx="-101.6279" cy="147.609" r="91.8424" gradientUnits="userSpaceOnUse">
			<stop  offset="0" style="stop-color:#FFFFFF"/>
			<stop  offset="1" style="stop-color:#FFFFFF;stop-opacity:0"/>
		</radialGradient>
		<path fill="url(#SVGID_4_)" d="M-204.953,68.907l184.294,157.405l0.52-0.607c8.028-9.486,15.33-19.547,21.81-30.124l0.026-0.038
			L-204.953,68.907z"/>
		<radialGradient id="SVGID_6_" cx="-87.1177" cy="115.2789" r="89.5404" gradientUnits="userSpaceOnUse">
			<stop  offset="0" style="stop-color:#FFFFFF"/>
			<stop  offset="1" style="stop-color:#FFFFFF;stop-opacity:0"/>
		</radialGradient>
		<path fill="url(#SVGID_6_)" d="M18.964,161.651l1.118-2.702c3.861-9.619,7.1-19.516,9.71-29.612l0.923-3.852l-235.666-56.579
			L18.964,161.651z"/>
		<radialGradient id="SVGID_8_" cx="-83.7474" cy="68.9051" r="86.7521" gradientUnits="userSpaceOnUse">
			<stop  offset="0" style="stop-color:#FFFFFF"/>
			<stop  offset="1" style="stop-color:#FFFFFF;stop-opacity:0"/>
		</radialGradient>
		<path fill="url(#SVGID_8_)" d="M36.666,87.922l0.386-4.862c0.563-9.746,0.544-19.598-0.096-29.512l-0.29-3.66l-241.616,19.015
			L36.666,87.922z"/>
		<radialGradient id="SVGID_10_" cx="-87.1197" cy="22.5273" r="89.5428" gradientUnits="userSpaceOnUse">
			<stop  offset="0" style="stop-color:#FFFFFF"/>
			<stop  offset="1" style="stop-color:#FFFFFF;stop-opacity:0"/>
		</radialGradient>
		<path fill="url(#SVGID_10_)" d="M30.715,12.325l-0.031-0.137c-2.777-11.538-6.35-22.674-10.621-33.381l-1.1-2.656l-223.918,92.752
			L30.715,12.325z"/>
		<radialGradient id="SVGID_12_" cx="-101.6269" cy="-9.7988" r="91.8418" gradientUnits="userSpaceOnUse">
			<stop  offset="0" style="stop-color:#FFFFFF"/>
			<stop  offset="1" style="stop-color:#FFFFFF;stop-opacity:0"/>
		</radialGradient>
		<path fill="url(#SVGID_12_)" d="M1.697-57.734l-2.584-4.217c-5.121-7.984-10.673-15.62-16.633-22.875l-3.136-3.674
			L-204.951,68.904L1.697-57.734z"/>
	</g>
</g>
<g>
	<path fill="#034686" d="M66.644,20.536C60.319,12.777,51.476,7.333,41.745,5.208L40.8,5.001l-0.945,0.207
		c-9.731,2.125-18.574,7.569-24.899,15.328C8.537,28.411,5.002,38.353,5.002,48.53V86.98c0,10.178,3.535,20.119,9.954,27.994
		c6.325,7.76,15.167,13.204,24.899,15.328l0.945,0.207l0.945-0.207c9.731-2.125,18.574-7.569,24.899-15.328
		c6.419-7.875,9.954-17.816,9.954-27.994V48.53C76.598,38.353,73.063,28.411,66.644,20.536z"/>
	<path fill="#0F3C6E" d="M66.644,20.536C60.319,12.777,51.476,7.333,41.745,5.208l-0.944-0.206v125.507l0.944-0.206
		c9.731-2.125,18.574-7.569,24.899-15.328c6.419-7.875,9.954-17.816,9.954-27.994V48.53C76.598,38.353,73.063,28.411,66.644,20.536z
		"/>
	<path fill="#0F3C6E" d="M72.169,84.705v2.275c0,19.111-13.432,35.077-31.368,38.995C22.864,122.057,9.432,106.091,9.432,86.98
		l0-2.275H72.169z"/>
	<path fill="#0A3154" d="M40.8,84.705v41.27h0c17.937-3.918,31.369-19.884,31.369-38.995v-2.275H40.8z"/>
	<path fill="#C2001D" d="M40.8,9.536C22.864,13.453,9.433,29.418,9.433,48.529h1.344c5.512,0,9.98-4.468,9.98-9.98h7.582
		c0.299-6.625,5.763-11.904,12.461-11.904c6.699,0,12.162,5.279,12.461,11.904h7.581c0,5.512,4.468,9.98,9.98,9.98h1.344
		C72.167,29.418,58.735,13.453,40.8,9.536z"/>
	<path fill="none" d="M40.8,9.536C22.864,13.453,9.433,29.418,9.433,48.529h1.344c5.512,0,9.98-4.468,9.98-9.98h40.086
		c0,5.512,4.468,9.98,9.98,9.98h1.344C72.167,29.418,58.736,13.453,40.8,9.536z"/>
	<rect x="40.8" y="39.12" fill="#DCBA2A" width="0" height="0"/>
	<rect x="40.8" y="39.12" fill="#DCBA2A" width="0" height="0"/>
	<rect x="40.8" y="39.12" fill="#DCBA2A" width="0" height="0"/>
	<rect x="40.8" y="39.12" fill="#DCBA2A" width="0" height="0"/>
	<rect x="40.8" y="39.121" fill="#DCBA2A" width="0" height="0"/>
	<rect x="40.8" y="39.121" fill="#DCBA2A" width="0" height="0"/>
	<rect x="40.8" y="39.12" fill="#DCBA2A" width="0" height="0"/>
	<rect x="40.8" y="39.121" fill="#DCBA2A" width="0" height="0"/>
	<path fill="#FFFFFF" d="M9.432,56.622v-3.006h10.963v3.006h-3.924v18.195h-3.115V56.622H9.432z"/>
	<path fill="#FFFFFF" d="M36.431,65.08v-9.127c0-1.29-1.046-2.336-2.337-2.336H25.86v21.2h3.115v-7.401h5.118
		C35.384,67.416,36.43,66.37,36.431,65.08z M33.315,64.411h-4.339v-7.789h4.339V64.411z"/>
	<path fill="#FFFFFF" d="M20.177,94.66h1.256v7.387h1.663v1.163h-2.92V94.66z"/>
	<path fill="#FFFFFF" d="M28.062,94.66h1.256v8.55h-1.256V94.66z"/>
	<path fill="#FFFFFF" d="M36.262,94.567c1.512-0.035,1.757,1.315,1.757,2.268l-1.233,0.116c0-0.57-0.081-1.233-0.5-1.233
		c-0.326,0.012-0.43,0.361-0.43,0.849c0,0.582,0.5,1.233,0.989,1.943c0.582,0.872,1.175,1.722,1.175,2.641
		c0,1.14-0.372,2.152-1.745,2.152c-1.617,0-1.826-1.221-1.826-2.49l1.233-0.116c0,0.71,0.07,1.454,0.593,1.454
		c0.372,0,0.512-0.407,0.512-0.942c0-0.57-0.535-1.256-1.012-1.978c-0.593-0.872-1.152-1.745-1.152-2.664
		C34.621,95.637,35.075,94.59,36.262,94.567z"/>
	<path fill="#FFFFFF" d="M31.028,108.893v-0.462c0-0.897,0.236-1.722,1.305-1.722c0.997,0,1.305,0.743,1.305,1.658
		c0,1.359-1.033,3.253-1.531,4.105h1.549v0.97h-2.655v-0.97c0,0,1.613-2.41,1.658-4.041c0-0.362-0.036-0.815-0.326-0.815
		c-0.272,0-0.326,0.39-0.326,0.815v0.462H31.028z"/>
	<path fill="#FFFFFF" d="M37.181,113.514c-1.314,0-1.305-1.441-1.305-1.441v-3.923c0,0-0.009-1.441,1.305-1.441
		c1.314,0,1.305,1.441,1.305,1.441v3.923C38.486,112.074,38.495,113.514,37.181,113.514z M37.181,107.661
		c-0.344,0-0.326,0.489-0.326,0.489v3.923c0,0-0.018,0.489,0.326,0.489c0.344,0,0.326-0.489,0.326-0.489v-3.923
		C37.507,108.15,37.525,107.661,37.181,107.661z"/>
	<g>
		<path fill="#C3C3C2" d="M72.167,72.48v-0.002v-3.672h-3.115v3.006h-4.339V56.622h4.208v3.006h3.115v-3.673v-0.002
			c0-1.29-1.046-2.337-2.336-2.337h-5.766c-1.291,0-2.337,1.046-2.337,2.337v0.001v16.526v0.001c0,1.291,1.046,2.337,2.337,2.337
			h5.897C71.121,74.817,72.167,73.771,72.167,72.48z"/>
		<path fill="#C3C3C2" d="M55.332,55.953c0-1.29-1.046-2.337-2.337-2.337h-6.224c-1.29,0-2.337,1.046-2.337,2.337v18.864h3.115
			v-6.092h4.666v6.092h3.115V55.953L55.332,55.953z M52.217,65.719H47.55v-9.097h4.666V65.719z"/>
		<path fill="#C3C3C2" d="M43.645,103.21v-8.55h1.105c1.501,0,2.292,0.57,2.292,2.268c0,0.791-0.175,1.245-0.779,1.768
			c0,0,0.873,0.396,0.873,2.094c0,1.256-0.442,2.362-1.943,2.42H43.645z M44.902,95.905v2.28c0.233,0,0.931,0.035,0.931-1.14
			C45.832,95.87,45.134,95.905,44.902,95.905z M44.902,99.337v2.629c0.233,0,0.931,0.093,0.931-1.315
			C45.832,99.244,45.134,99.337,44.902,99.337z"/>
		<path fill="#C3C3C2" d="M53.429,103.303c-1.687,0-1.675-1.85-1.675-1.85v-5.037c0,0-0.012-1.85,1.675-1.85s1.675,1.85,1.675,1.85
			v5.037C55.104,101.454,55.115,103.303,53.429,103.303z M53.429,95.789c-0.442,0-0.419,0.628-0.419,0.628v5.037
			c0,0-0.023,0.628,0.419,0.628c0.442,0,0.419-0.628,0.419-0.628v-5.037C53.848,96.417,53.871,95.789,53.429,95.789z"/>
		<path fill="#C3C3C2" d="M60.736,98.755l-0.105-0.395h-0.07v0.395v4.455H59.41v-8.55h1.117l1.221,4.455l0.105,0.396h0.07v-0.396
			V94.66h1.152v8.55h-1.117L60.736,98.755z"/>
		<path fill="#C3C3C2" d="M42.971,108.223v-0.625c0.815-0.163,1.042-0.816,1.042-0.816h0.589v6.66h-0.979v-5.219H42.971z"/>
		<path fill="#C3C3C2" d="M49.894,112.074c0,0.317-0.082,1.441-1.278,1.441c-1.196,0-1.278-1.124-1.278-1.441v-3.788
			c0-0.471,0.054-1.577,1.278-1.577c1.223,0,1.278,1.105,1.278,1.577v0.417h-0.979c0-0.897-0.018-1.142-0.299-1.142
			c-0.245,0-0.299,0.217-0.299,0.725v1.187c0.163-0.1,0.317-0.163,0.489-0.163c1.006,0,1.087,1.033,1.087,1.404V112.074z
			 M48.616,112.663c0.208,0,0.299-0.218,0.299-0.299v-1.993c0-0.082-0.091-0.299-0.299-0.299c-0.208,0-0.29,0.181-0.299,0.272v2.021
			C48.317,112.445,48.39,112.663,48.616,112.663z"/>
	</g>
	<polygon fill="#D4A525" points="72.168,79.887 72.168,86.98 9.431,86.98 9.431,79.887 16.402,79.887 16.402,83.433 23.373,83.433 
		23.373,79.887 30.344,79.887 30.344,83.433 37.314,83.433 37.314,79.887 44.285,79.887 44.285,83.433 51.256,83.433 51.256,79.887 
		58.227,79.887 58.227,83.433 65.197,83.433 65.197,79.887 	"/>
	<polygon fill="#BD9322" points="40.8,79.887 40.8,86.98 72.168,86.98 72.168,79.887 65.197,79.887 65.197,83.433 58.227,83.433 
		58.227,79.887 51.256,79.887 51.256,83.433 44.285,83.433 44.285,79.887 	"/>
	<path fill="none" d="M40.8,9.536C22.864,13.453,9.433,29.418,9.433,48.529h1.344c5.512,0,9.98-4.468,9.98-9.98h40.086
		c0,5.512,4.468,9.98,9.98,9.98h1.344C72.167,29.418,58.736,13.453,40.8,9.536z"/>
	<g>
		<path fill="#7F0D1C" d="M66.643,20.536C60.319,12.777,51.476,7.333,41.745,5.208L40.8,5.001l-0.945,0.207
			c-9.731,2.125-18.573,7.569-24.898,15.328c-6.419,7.875-9.954,17.816-9.954,27.993l4.43,0c0-19.111,13.432-35.076,31.367-38.993
			c17.936,3.917,31.367,19.883,31.367,38.993l4.43,0C76.597,38.352,73.062,28.411,66.643,20.536z"/>
	</g>
	<path fill="none" d="M40.8,9.536C22.864,13.453,9.433,29.418,9.433,48.529h1.344c5.512,0,9.98-4.468,9.98-9.98h40.086
		c0,5.512,4.468,9.98,9.98,9.98h1.344C72.167,29.418,58.736,13.453,40.8,9.536z"/>
	<circle fill="#0F3C6E" cx="40.8" cy="39.121" r="10.996"/>
	<path fill="#0A3154" d="M40.801,28.125v21.992c6.072-0.001,10.995-4.923,10.995-10.996C51.796,33.048,46.874,28.125,40.801,28.125z
		"/>
	<g>
		<path fill="#FFFFFF" d="M44.722,38.979c0-0.349,0-0.703,0.256-1.454c0.212-0.633,0.707-1.149,1.128-1.244
			c0.328-0.071,0.539-0.025,0.868,0.211c0.397,0.282,0.633,0.775,0.633,0.775l0.613-1.175l-0.191-1.032l-0.586,1.196
			c0,0-0.259-0.494-0.517-0.703c-0.232-0.211-0.561-0.4-0.961-0.352c-0.377,0.048-0.797,0.376-1.103,0.939
			c-0.328,0.633-0.444,1.289-0.444,1.992c0,1.011,0.371,1.692,0.371,1.692S44.697,39.521,44.722,38.979z"/>
		<path fill="#FFFFFF" d="M44.745,42.311c0.208,0.303,0.658,0.797,1.291,0.916c0.658,0.117,1.102-0.164,1.222-0.237
			c0.093-0.071,0.327-0.283,0.469-0.419c0.163-0.165,0.305-0.378,0.398-0.515c0.046-0.097,0.142-0.283,0.142-0.283l-0.142-0.803
			c0,0-0.283,0.472-0.446,0.663c-0.165,0.185-0.469,0.514-0.846,0.679c-0.374,0.164-0.561,0.185-0.913,0.164
			c-0.374-0.047-0.728-0.26-0.846-0.329c-0.12-0.09-0.423-0.352-0.586-0.607c-0.164-0.235-0.446-0.728-0.446-0.728
			s0.165,0.493,0.258,0.703C44.347,41.633,44.511,41.981,44.745,42.311z"/>
		<path fill="#FFFFFF" d="M35.337,43.297l1.527-5.092l1.524,5.092h0.093l2.06-6.98l0.124-0.198h1.711l-1.431,2.439v0.493h0.398
			c0.542,0,0.915,0.162,1.151,0.469c0.21,0.282,0.327,0.654,0.327,1.148c0,0.447-0.116,0.822-0.303,1.125
			c-0.189,0.328-0.447,0.494-0.728,0.494c-0.26,0-0.492-0.094-0.704-0.281c-0.188-0.164-0.352-0.422-0.469-0.728l-0.824,0.354
			c0.167,0.514,0.423,0.913,0.777,1.216c0.352,0.283,0.751,0.448,1.22,0.448c0.633,0,1.148-0.259,1.546-0.752
			c0.4-0.515,0.586-1.148,0.586-1.877c0-0.609-0.138-1.125-0.395-1.572c-0.284-0.443-0.681-0.752-1.198-0.914l1.502-2.581v-0.493
			h-3.964v0.001h-0.025l-1.454,4.971l-1.478-4.971h-1.055l0.492,1.617l-1.009,3.354l-1.455-4.971h-1.079l2.439,8.188H35.337z"/>
	</g>
	<path fill="#7F0D1C" d="M16.227,46.908c0.421-0.275,0.82-0.58,1.194-0.914H9.521c0.033-0.526,0.075-1.049,0.128-1.569h9.192
		c0.214-0.293,0.411-0.598,0.593-0.914H9.75c0.066-0.526,0.144-1.049,0.231-1.569h10.184c0.108-0.298,0.203-0.603,0.282-0.914
		H10.144c0.1-0.527,0.209-1.05,0.33-1.569h10.24c0.027-0.301,0.043-0.605,0.043-0.913h7.582l0-0.001H10.698
		c0.136-0.527,0.283-1.05,0.44-1.569h17.376c0.054-0.308,0.116-0.613,0.192-0.914H11.426c0.173-0.528,0.357-1.051,0.552-1.569
		h17.236c0.124-0.311,0.263-0.615,0.41-0.914H12.331c0.214-0.529,0.438-1.052,0.674-1.569H30.55c0.219-0.315,0.452-0.62,0.699-0.914
		H13.439c0.258-0.53,0.527-1.053,0.807-1.569h18.579c0.395-0.329,0.809-0.635,1.243-0.914H14.752
		c0.307-0.531,0.627-1.053,0.957-1.569h21.938c1.007-0.263,2.064-0.405,3.154-0.405s2.146,0.142,3.154,0.405h21.936
		c0.33,0.515,0.65,1.038,0.957,1.569H47.534c0.434,0.279,0.848,0.585,1.243,0.914h18.577c0.28,0.516,0.549,1.039,0.807,1.569H50.352
		c0.247,0.293,0.48,0.598,0.699,0.914h17.544c0.235,0.517,0.46,1.04,0.674,1.569H51.978c0.148,0.298,0.286,0.602,0.41,0.914h17.234
		c0.195,0.518,0.378,1.041,0.552,1.569H52.896c0.076,0.3,0.138,0.605,0.192,0.914h17.374c0.157,0.519,0.304,1.041,0.44,1.569h-17.64
		v0.001h7.581c0,0.308,0.016,0.612,0.043,0.913h10.239c0.121,0.519,0.23,1.042,0.33,1.569H61.155
		c0.079,0.311,0.174,0.615,0.282,0.914h10.183c0.086,0.52,0.164,1.042,0.231,1.569h-9.683c0.181,0.316,0.379,0.621,0.593,0.914
		h9.191c0.053,0.52,0.095,1.043,0.128,1.569h-7.898c0.374,0.334,0.773,0.639,1.194,0.914h6.757c0.022,0.538,0.035,1.078,0.035,1.621
		h0l0,0l4.43,0c0-10.177-3.535-20.119-9.954-27.993C60.319,12.777,51.476,7.333,41.745,5.208L40.8,5.001l-0.945,0.207
		c-9.731,2.125-18.573,7.569-24.898,15.328c-6.419,7.875-9.954,17.816-9.954,27.993l4.43,0c0-0.543,0.014-1.083,0.035-1.621H16.227z
		 M40.8,9.536c1.954,0.427,3.85,1.005,5.686,1.706H35.114C36.95,10.54,38.846,9.962,40.8,9.536z M32.908,12.155h15.784
		c1.059,0.48,2.095,1.002,3.103,1.569h-21.99C30.813,13.157,31.848,12.635,32.908,12.155z M28.265,14.638h25.071
		c0.794,0.495,1.566,1.021,2.321,1.569H25.943C26.699,15.658,27.471,15.132,28.265,14.638z M24.734,17.12h32.131
		c0.644,0.505,1.274,1.026,1.885,1.569H22.849C23.46,18.146,24.09,17.625,24.734,17.12z M21.852,19.602h37.895
		c0.534,0.508,1.051,1.033,1.556,1.569H20.297C20.802,20.635,21.319,20.11,21.852,19.602z M19.453,22.085h42.693
		c0.452,0.51,0.886,1.036,1.312,1.569H18.142C18.567,23.12,19.002,22.595,19.453,22.085z M17.428,24.567h46.744
		c0.386,0.513,0.759,1.037,1.12,1.569H16.308C16.669,25.604,17.042,25.08,17.428,24.567z"/>
</g>
</svg>
